<?xml version="1.0" encoding="UTF-8" standalone="no"?>
<!-- Created with Inkscape (http://www.inkscape.org/) -->

<svg
   xmlns:ns0="http://www.iki.fi/pav/software/textext/"
   xmlns:dc="http://purl.org/dc/elements/1.1/"
   xmlns:cc="http://creativecommons.org/ns#"
   xmlns:rdf="http://www.w3.org/1999/02/22-rdf-syntax-ns#"
   xmlns:svg="http://www.w3.org/2000/svg"
   xmlns="http://www.w3.org/2000/svg"
   xmlns:sodipodi="http://sodipodi.sourceforge.net/DTD/sodipodi-0.dtd"
   xmlns:inkscape="http://www.inkscape.org/namespaces/inkscape"
   width="210mm"
   height="297mm"
   viewBox="0 0 210 297"
   version="1.1"
   id="svg8"
   inkscape:version="0.92.4 (5da689c313, 2019-01-14)"
   sodipodi:docname="drawing_configurations.svg">
  <defs
     id="defs2">
    <inkscape:path-effect
       effect="spiro"
       id="path-effect827"
       is_visible="true" />
    <inkscape:path-effect
       effect="spiro"
       id="path-effect827-4"
       is_visible="true" />
    <inkscape:path-effect
       effect="spiro"
       id="path-effect827-4-9"
       is_visible="true" />
    <inkscape:path-effect
       effect="spiro"
       id="path-effect827-4-5"
       is_visible="true" />
    <inkscape:path-effect
       effect="spiro"
       id="path-effect827-4-4"
       is_visible="true" />
  </defs>
  <sodipodi:namedview
     id="base"
     pagecolor="#ffffff"
     bordercolor="#666666"
     borderopacity="1.0"
     inkscape:pageopacity="0.0"
     inkscape:pageshadow="2"
     inkscape:zoom="1.4"
     inkscape:cx="442.68499"
     inkscape:cy="663.98649"
     inkscape:document-units="mm"
     inkscape:current-layer="layer1"
     showgrid="false"
     inkscape:window-width="2400"
     inkscape:window-height="1421"
     inkscape:window-x="2391"
     inkscape:window-y="-9"
     inkscape:window-maximized="1" />
  <metadata
     id="metadata5">
    <rdf:RDF>
      <cc:Work
         rdf:about="">
        <dc:format>image/svg+xml</dc:format>
        <dc:type
           rdf:resource="http://purl.org/dc/dcmitype/StillImage" />
        <dc:title></dc:title>
      </cc:Work>
    </rdf:RDF>
  </metadata>
  <g
     inkscape:label="Layer 1"
     inkscape:groupmode="layer"
     id="layer1">
    <path
       style="fill:none;stroke:#000000;stroke-width:0.26458332;stroke-linecap:butt;stroke-linejoin:miter;stroke-opacity:1;stroke-miterlimit:4;stroke-dasharray:0.79374995,0.79374995;stroke-dashoffset:0"
       d="m 101.10863,103.09821 c 0.18899,-0.75595 19.0878,-39.687497 19.0878,-39.687497"
       id="path919"
       inkscape:connector-curvature="0" />
    <path
       style="fill:none;stroke:#000000;stroke-width:0.26458332;stroke-linecap:butt;stroke-linejoin:miter;stroke-opacity:1;stroke-miterlimit:4;stroke-dasharray:0.79374995,0.79374995;stroke-dashoffset:0"
       d="m 131.34672,63.788689 30.04911,33.072916"
       id="path921"
       inkscape:connector-curvature="0" />
    <path
       style="opacity:1;fill:#ffffff;fill-opacity:1;stroke:#000000;stroke-width:0.175;stroke-miterlimit:4;stroke-dasharray:none;stroke-dashoffset:0;stroke-opacity:1"
       id="path877"
       sodipodi:type="arc"
       sodipodi:cx="163.56567"
       sodipodi:cy="156.61667"
       sodipodi:rx="143.87218"
       sodipodi:ry="54.322533"
       sodipodi:start="3.489571"
       sodipodi:end="4.8209492"
       sodipodi:open="true"
       d="M 28.316618,138.09279 A 143.87218,54.322533 0 0 1 179.15381,102.61393" />
    <path
       style="fill:#ffffff;stroke:#000000;stroke-width:0.4;stroke-linecap:butt;stroke-linejoin:miter;stroke-opacity:1;stroke-miterlimit:4;stroke-dasharray:none"
       d="m 123.7872,118.59524 c -1.44236,0.40636 -2.94623,0.60088 -4.34673,1.13392 -2.05373,0.78167 -3.76241,2.24027 -5.58679,3.46519 -0.91219,0.61246 -1.867,1.17348 -2.89691,1.5562 -1.02992,0.38272 -2.14179,0.58269 -3.23356,0.45927 -0.66728,-0.0754 -1.31491,-0.26919 -1.97457,-0.39487 -0.65967,-0.12568 -1.35254,-0.18123 -1.99418,0.0169 -0.77091,0.23804 -1.3984,0.82769 -1.81781,1.51693 -0.41941,0.68925 -0.65064,1.47575 -0.82802,2.26283 -0.84967,3.7702 -0.55195,7.70314 0,11.52828 0.61274,4.24642 1.60277,8.604 4.21088,12.01066 1.30406,1.70333 3.00741,3.12843 4.99285,3.94076 1.98545,0.81234 4.25923,0.9831 6.29329,0.30155 1.3871,-0.46477 2.64426,-1.30762 4.07734,-1.60146 0.71654,-0.14693 1.478,-0.14765 2.16262,0.10988 0.3423,0.12877 0.66197,0.32152 0.9255,0.57511 0.26352,0.25359 0.46988,0.5687 0.58306,0.91647 0.0995,0.30573 0.12615,0.62963 0.18898,0.94495 0.20822,1.045 0.82676,1.99254 1.66446,2.65105 0.8377,0.65851 1.88427,1.03285 2.94662,1.11525 1.06235,0.0824 2.13841,-0.12038 3.12301,-0.52773 0.98461,-0.40734 1.87968,-1.01549 2.6645,-1.7362 1.56965,-1.44142 2.68461,-3.30449 3.67659,-5.19062 0.99197,-1.88612 1.88995,-3.83386 3.12274,-5.57217 1.52218,-2.14636 3.55753,-3.98284 4.53571,-6.4256 0.69201,-1.72812 0.79681,-3.62503 0.94494,-5.48065 0.14637,-1.83354 0.33807,-3.7184 -0.18898,-5.48065 -0.33255,-1.11191 -0.94325,-2.12961 -1.70265,-3.00725 -0.7594,-0.87763 -1.66558,-1.61967 -2.62797,-2.26833 -1.92476,-1.29731 -4.07165,-2.22651 -6.06373,-3.41788 -1.61034,-0.96307 -3.11966,-2.09752 -4.7893,-2.95366 -1.66964,-0.85615 -3.55966,-1.42979 -5.41605,-1.15682 -0.90419,0.13295 -1.76618,0.46087 -2.64584,0.7087 z"
       id="path825"
       inkscape:connector-curvature="0"
       inkscape:path-effect="#path-effect827"
       inkscape:original-d="m 123.7872,118.59524 c -1.63937,0.20492 -2.74081,0.59862 -4.34673,1.13392 -3.56201,1.18735 -7.67192,4.19351 -11.71726,5.48066 -1.15651,0.36798 -3.16205,-0.70065 -3.96875,-0.37798 -0.75446,0.30179 -2.31479,3.03493 -2.64583,3.77976 -1.305181,2.93666 -0.47164,8.46264 0,11.52828 1.71782,11.16584 4.69058,13.85154 15.49702,16.25297 1.0589,0.23532 7.01449,-0.73402 7.74852,0 0.0911,0.0911 -0.16238,0.94495 0.18898,0.94495 4.7078,0 13.99701,-6.05951 17.19792,-9.26042 1.80426,-1.80426 3.14506,-4.57139 4.53571,-6.4256 0.95061,-1.26748 0.5137,-3.97128 0.94494,-5.48065 0.4182,-1.46368 0.72435,-4.26288 -0.18898,-5.48065 -3.17142,-4.22856 -5.81512,-5.64064 -10.39435,-8.69346 -3.02263,-2.01509 -6.54473,-3.88841 -10.20535,-4.11048 -0.91136,-0.0553 -1.82366,0.60592 -2.64584,0.7087 z"
       sodipodi:nodetypes="ccscccccsscccssc"
       transform="translate(-97.018838,2.1381562)" />
    <path
       transform="rotate(13.419892,227.96949,-10.232514)"
       style="fill:#ffffff;stroke:#000000;stroke-width:0.4;stroke-linecap:butt;stroke-linejoin:miter;stroke-opacity:1;stroke-miterlimit:4;stroke-dasharray:none"
       d="m 123.7872,118.59524 c -1.44236,0.40636 -2.94623,0.60088 -4.34673,1.13392 -2.05373,0.78167 -3.76241,2.24027 -5.58679,3.46519 -0.91219,0.61246 -1.867,1.17348 -2.89691,1.5562 -1.02992,0.38272 -2.14179,0.58269 -3.23356,0.45927 -0.66728,-0.0754 -1.31491,-0.26919 -1.97457,-0.39487 -0.65967,-0.12568 -1.35254,-0.18123 -1.99418,0.0169 -0.77091,0.23804 -1.3984,0.82769 -1.81781,1.51693 -0.41941,0.68925 -0.65064,1.47575 -0.82802,2.26283 -0.84967,3.7702 -0.55195,7.70314 0,11.52828 0.61274,4.24642 1.60277,8.604 4.21088,12.01066 1.30406,1.70333 3.00741,3.12843 4.99285,3.94076 1.98545,0.81234 4.25923,0.9831 6.29329,0.30155 1.3871,-0.46477 2.64426,-1.30762 4.07734,-1.60146 0.71654,-0.14693 1.478,-0.14765 2.16262,0.10988 0.3423,0.12877 0.66197,0.32152 0.9255,0.57511 0.26352,0.25359 0.46988,0.5687 0.58306,0.91647 0.0995,0.30573 0.12615,0.62963 0.18898,0.94495 0.20822,1.045 0.82676,1.99254 1.66446,2.65105 0.8377,0.65851 1.88427,1.03285 2.94662,1.11525 1.06235,0.0824 2.13841,-0.12038 3.12301,-0.52773 0.98461,-0.40734 1.87968,-1.01549 2.6645,-1.7362 1.56965,-1.44142 2.68461,-3.30449 3.67659,-5.19062 0.99197,-1.88612 1.88995,-3.83386 3.12274,-5.57217 1.52218,-2.14636 3.55753,-3.98284 4.53571,-6.4256 0.69201,-1.72812 0.79681,-3.62503 0.94494,-5.48065 0.14637,-1.83354 0.33807,-3.7184 -0.18898,-5.48065 -0.33255,-1.11191 -0.94325,-2.12961 -1.70265,-3.00725 -0.7594,-0.87763 -1.66558,-1.61967 -2.62797,-2.26833 -1.92476,-1.29731 -4.07165,-2.22651 -6.06373,-3.41788 -1.61034,-0.96307 -3.11966,-2.09752 -4.7893,-2.95366 -1.66964,-0.85615 -3.55966,-1.42979 -5.41605,-1.15682 -0.90419,0.13295 -1.76618,0.46087 -2.64584,0.7087 z"
       id="path825-2"
       inkscape:connector-curvature="0"
       inkscape:path-effect="#path-effect827-4"
       inkscape:original-d="m 123.7872,118.59524 c -1.63937,0.20492 -2.74081,0.59862 -4.34673,1.13392 -3.56201,1.18735 -7.67192,4.19351 -11.71726,5.48066 -1.15651,0.36798 -3.16205,-0.70065 -3.96875,-0.37798 -0.75446,0.30179 -2.31479,3.03493 -2.64583,3.77976 -1.305181,2.93666 -0.47164,8.46264 0,11.52828 1.71782,11.16584 4.69058,13.85154 15.49702,16.25297 1.0589,0.23532 7.01449,-0.73402 7.74852,0 0.0911,0.0911 -0.16238,0.94495 0.18898,0.94495 4.7078,0 13.99701,-6.05951 17.19792,-9.26042 1.80426,-1.80426 3.14506,-4.57139 4.53571,-6.4256 0.95061,-1.26748 0.5137,-3.97128 0.94494,-5.48065 0.4182,-1.46368 0.72435,-4.26288 -0.18898,-5.48065 -3.17142,-4.22856 -5.81512,-5.64064 -10.39435,-8.69346 -3.02263,-2.01509 -6.54473,-3.88841 -10.20535,-4.11048 -0.91136,-0.0553 -1.82366,0.60592 -2.64584,0.7087 z"
       sodipodi:nodetypes="ccscccccsscccssc" />
    <path
       transform="rotate(32.60116,203.019,199.5193)"
       style="fill:#ffffff;stroke:#000000;stroke-width:0.4;stroke-linecap:butt;stroke-linejoin:miter;stroke-opacity:1;stroke-miterlimit:4;stroke-dasharray:none"
       d="m 123.7872,118.59524 c -1.44236,0.40636 -2.94623,0.60088 -4.34673,1.13392 -2.05373,0.78167 -3.76241,2.24027 -5.58679,3.46519 -0.91219,0.61246 -1.867,1.17348 -2.89691,1.5562 -1.02992,0.38272 -2.14179,0.58269 -3.23356,0.45927 -0.66728,-0.0754 -1.31491,-0.26919 -1.97457,-0.39487 -0.65967,-0.12568 -1.35254,-0.18123 -1.99418,0.0169 -0.77091,0.23804 -1.3984,0.82769 -1.81781,1.51693 -0.41941,0.68925 -0.65064,1.47575 -0.82802,2.26283 -0.84967,3.7702 -0.55195,7.70314 0,11.52828 0.61274,4.24642 1.60277,8.604 4.21088,12.01066 1.30406,1.70333 3.00741,3.12843 4.99285,3.94076 1.98545,0.81234 4.25923,0.9831 6.29329,0.30155 1.3871,-0.46477 2.64426,-1.30762 4.07734,-1.60146 0.71654,-0.14693 1.478,-0.14765 2.16262,0.10988 0.3423,0.12877 0.66197,0.32152 0.9255,0.57511 0.26352,0.25359 0.46988,0.5687 0.58306,0.91647 0.0995,0.30573 0.12615,0.62963 0.18898,0.94495 0.20822,1.045 0.82676,1.99254 1.66446,2.65105 0.8377,0.65851 1.88427,1.03285 2.94662,1.11525 1.06235,0.0824 2.13841,-0.12038 3.12301,-0.52773 0.98461,-0.40734 1.87968,-1.01549 2.6645,-1.7362 1.56965,-1.44142 2.68461,-3.30449 3.67659,-5.19062 0.99197,-1.88612 1.88995,-3.83386 3.12274,-5.57217 1.52218,-2.14636 3.55753,-3.98284 4.53571,-6.4256 0.69201,-1.72812 0.79681,-3.62503 0.94494,-5.48065 0.14637,-1.83354 0.33807,-3.7184 -0.18898,-5.48065 -0.33255,-1.11191 -0.94325,-2.12961 -1.70265,-3.00725 -0.7594,-0.87763 -1.66558,-1.61967 -2.62797,-2.26833 -1.92476,-1.29731 -4.07165,-2.22651 -6.06373,-3.41788 -1.61034,-0.96307 -3.11966,-2.09752 -4.7893,-2.95366 -1.66964,-0.85615 -3.55966,-1.42979 -5.41605,-1.15682 -0.90419,0.13295 -1.76618,0.46087 -2.64584,0.7087 z"
       id="path825-2-8"
       inkscape:connector-curvature="0"
       inkscape:path-effect="#path-effect827-4-9"
       inkscape:original-d="m 123.7872,118.59524 c -1.63937,0.20492 -2.74081,0.59862 -4.34673,1.13392 -3.56201,1.18735 -7.67192,4.19351 -11.71726,5.48066 -1.15651,0.36798 -3.16205,-0.70065 -3.96875,-0.37798 -0.75446,0.30179 -2.31479,3.03493 -2.64583,3.77976 -1.305181,2.93666 -0.47164,8.46264 0,11.52828 1.71782,11.16584 4.69058,13.85154 15.49702,16.25297 1.0589,0.23532 7.01449,-0.73402 7.74852,0 0.0911,0.0911 -0.16238,0.94495 0.18898,0.94495 4.7078,0 13.99701,-6.05951 17.19792,-9.26042 1.80426,-1.80426 3.14506,-4.57139 4.53571,-6.4256 0.95061,-1.26748 0.5137,-3.97128 0.94494,-5.48065 0.4182,-1.46368 0.72435,-4.26288 -0.18898,-5.48065 -3.17142,-4.22856 -5.81512,-5.64064 -10.39435,-8.69346 -3.02263,-2.01509 -6.54473,-3.88841 -10.20535,-4.11048 -0.91136,-0.0553 -1.82366,0.60592 -2.64584,0.7087 z"
       sodipodi:nodetypes="ccscccccsscccssc" />
    <path
       transform="matrix(1.179455,-0.22513109,-0.28141859,-0.94354822,12.569323,324.1941)"
       style="fill:#ffffff;stroke:#000000;stroke-width:0.36881968;stroke-linecap:butt;stroke-linejoin:miter;stroke-miterlimit:4;stroke-dasharray:none;stroke-opacity:1"
       d="m 123.7872,118.59524 c -1.44236,0.40636 -2.94623,0.60088 -4.34673,1.13392 -2.05373,0.78167 -3.76241,2.24027 -5.58679,3.46519 -0.91219,0.61246 -1.867,1.17348 -2.89691,1.5562 -1.02992,0.38272 -2.14179,0.58269 -3.23356,0.45927 -0.66728,-0.0754 -1.31491,-0.26919 -1.97457,-0.39487 -0.65967,-0.12568 -1.35254,-0.18123 -1.99418,0.0169 -0.77091,0.23804 -1.3984,0.82769 -1.81781,1.51693 -0.41941,0.68925 -0.65064,1.47575 -0.82802,2.26283 -0.84967,3.7702 -0.55195,7.70314 0,11.52828 0.61274,4.24642 1.60277,8.604 4.21088,12.01066 1.30406,1.70333 3.00741,3.12843 4.99285,3.94076 1.98545,0.81234 4.25923,0.9831 6.29329,0.30155 1.3871,-0.46477 2.64426,-1.30762 4.07734,-1.60146 0.71654,-0.14693 1.478,-0.14765 2.16262,0.10988 0.3423,0.12877 0.66197,0.32152 0.9255,0.57511 0.26352,0.25359 0.46988,0.5687 0.58306,0.91647 0.0995,0.30573 0.12615,0.62963 0.18898,0.94495 0.20822,1.045 0.82676,1.99254 1.66446,2.65105 0.8377,0.65851 1.88427,1.03285 2.94662,1.11525 1.06235,0.0824 2.13841,-0.12038 3.12301,-0.52773 0.98461,-0.40734 1.87968,-1.01549 2.6645,-1.7362 1.56965,-1.44142 2.68461,-3.30449 3.67659,-5.19062 0.99197,-1.88612 1.88995,-3.83386 3.12274,-5.57217 1.52218,-2.14636 3.55753,-3.98284 4.53571,-6.4256 0.69201,-1.72812 0.79681,-3.62503 0.94494,-5.48065 0.14637,-1.83354 0.33807,-3.7184 -0.18898,-5.48065 -0.33255,-1.11191 -0.94325,-2.12961 -1.70265,-3.00725 -0.7594,-0.87763 -1.66558,-1.61967 -2.62797,-2.26833 -1.92476,-1.29731 -4.07165,-2.22651 -6.06373,-3.41788 -1.61034,-0.96307 -3.11966,-2.09752 -4.7893,-2.95366 -1.66964,-0.85615 -3.55966,-1.42979 -5.41605,-1.15682 -0.90419,0.13295 -1.76618,0.46087 -2.64584,0.7087 z"
       id="path825-2-1"
       inkscape:connector-curvature="0"
       inkscape:path-effect="#path-effect827-4-5"
       inkscape:original-d="m 123.7872,118.59524 c -1.63937,0.20492 -2.74081,0.59862 -4.34673,1.13392 -3.56201,1.18735 -7.67192,4.19351 -11.71726,5.48066 -1.15651,0.36798 -3.16205,-0.70065 -3.96875,-0.37798 -0.75446,0.30179 -2.31479,3.03493 -2.64583,3.77976 -1.305181,2.93666 -0.47164,8.46264 0,11.52828 1.71782,11.16584 4.69058,13.85154 15.49702,16.25297 1.0589,0.23532 7.01449,-0.73402 7.74852,0 0.0911,0.0911 -0.16238,0.94495 0.18898,0.94495 4.7078,0 13.99701,-6.05951 17.19792,-9.26042 1.80426,-1.80426 3.14506,-4.57139 4.53571,-6.4256 0.95061,-1.26748 0.5137,-3.97128 0.94494,-5.48065 0.4182,-1.46368 0.72435,-4.26288 -0.18898,-5.48065 -3.17142,-4.22856 -5.81512,-5.64064 -10.39435,-8.69346 -3.02263,-2.01509 -6.54473,-3.88841 -10.20535,-4.11048 -0.91136,-0.0553 -1.82366,0.60592 -2.64584,0.7087 z"
       sodipodi:nodetypes="ccscccccsscccssc" />
    <path
       transform="rotate(24.464779,313.56669,100.76129)"
       style="fill:#ffffff;stroke:#000000;stroke-width:0.40000001;stroke-linecap:butt;stroke-linejoin:miter;stroke-miterlimit:4;stroke-dasharray:none;stroke-opacity:1"
       d="m 123.7872,118.59524 c -1.44236,0.40636 -2.94623,0.60088 -4.34673,1.13392 -2.05373,0.78167 -3.76241,2.24027 -5.58679,3.46519 -0.91219,0.61246 -1.867,1.17348 -2.89691,1.5562 -1.02992,0.38272 -2.14179,0.58269 -3.23356,0.45927 -0.66728,-0.0754 -1.31491,-0.26919 -1.97457,-0.39487 -0.65967,-0.12568 -1.35254,-0.18123 -1.99418,0.0169 -0.77091,0.23804 -1.3984,0.82769 -1.81781,1.51693 -0.41941,0.68925 -0.65064,1.47575 -0.82802,2.26283 -0.84967,3.7702 -0.55195,7.70314 0,11.52828 0.61274,4.24642 1.60277,8.604 4.21088,12.01066 1.30406,1.70333 3.00741,3.12843 4.99285,3.94076 1.98545,0.81234 4.25923,0.9831 6.29329,0.30155 1.3871,-0.46477 2.64426,-1.30762 4.07734,-1.60146 0.71654,-0.14693 1.478,-0.14765 2.16262,0.10988 0.3423,0.12877 0.66197,0.32152 0.9255,0.57511 0.26352,0.25359 0.46988,0.5687 0.58306,0.91647 0.0995,0.30573 0.12615,0.62963 0.18898,0.94495 0.20822,1.045 0.82676,1.99254 1.66446,2.65105 0.8377,0.65851 1.88427,1.03285 2.94662,1.11525 1.06235,0.0824 2.13841,-0.12038 3.12301,-0.52773 0.98461,-0.40734 1.87968,-1.01549 2.6645,-1.7362 1.56965,-1.44142 2.68461,-3.30449 3.67659,-5.19062 0.99197,-1.88612 1.88995,-3.83386 3.12274,-5.57217 1.52218,-2.14636 3.55753,-3.98284 4.53571,-6.4256 0.69201,-1.72812 0.79681,-3.62503 0.94494,-5.48065 0.14637,-1.83354 0.33807,-3.7184 -0.18898,-5.48065 -0.33255,-1.11191 -0.94325,-2.12961 -1.70265,-3.00725 -0.7594,-0.87763 -1.66558,-1.61967 -2.62797,-2.26833 -1.92476,-1.29731 -4.07165,-2.22651 -6.06373,-3.41788 -1.61034,-0.96307 -3.11966,-2.09752 -4.7893,-2.95366 -1.66964,-0.85615 -3.55966,-1.42979 -5.41605,-1.15682 -0.90419,0.13295 -1.76618,0.46087 -2.64584,0.7087 z"
       id="path825-2-2"
       inkscape:connector-curvature="0"
       inkscape:path-effect="#path-effect827-4-4"
       inkscape:original-d="m 123.7872,118.59524 c -1.63937,0.20492 -2.74081,0.59862 -4.34673,1.13392 -3.56201,1.18735 -7.67192,4.19351 -11.71726,5.48066 -1.15651,0.36798 -3.16205,-0.70065 -3.96875,-0.37798 -0.75446,0.30179 -2.31479,3.03493 -2.64583,3.77976 -1.305181,2.93666 -0.47164,8.46264 0,11.52828 1.71782,11.16584 4.69058,13.85154 15.49702,16.25297 1.0589,0.23532 7.01449,-0.73402 7.74852,0 0.0911,0.0911 -0.16238,0.94495 0.18898,0.94495 4.7078,0 13.99701,-6.05951 17.19792,-9.26042 1.80426,-1.80426 3.14506,-4.57139 4.53571,-6.4256 0.95061,-1.26748 0.5137,-3.97128 0.94494,-5.48065 0.4182,-1.46368 0.72435,-4.26288 -0.18898,-5.48065 -3.17142,-4.22856 -5.81512,-5.64064 -10.39435,-8.69346 -3.02263,-2.01509 -6.54473,-3.88841 -10.20535,-4.11048 -0.91136,-0.0553 -1.82366,0.60592 -2.64584,0.7087 z"
       sodipodi:nodetypes="ccscccccsscccssc" />
    <g
       ns0:jacobian_sqrt="0.705556"
       ns0:alignment="middle center"
       ns0:scale="2.0"
       ns0:preamble="C:\\Users\\Tom\\AppData\\Roaming\\inkscape\\extensions\\textext\\default_packages.tex"
       ns0:text="$\\Omega_0$"
       ns0:pdfconverter="pstoedit"
       ns0:texconverter="pdflatex"
       ns0:version="0.10.2"
       word-spacing="normal"
       letter-spacing="normal"
       font-size-adjust="none"
       font-stretch="normal"
       font-weight="normal"
       font-variant="normal"
       font-style="normal"
       stroke-miterlimit="10.433"
       xml:space="preserve"
       transform="matrix(0.705556,0,0,-0.705556,-75.140497,621.85903)"
       id="content"
       style="font-style:normal;font-variant:normal;font-weight:normal;font-stretch:normal;letter-spacing:normal;word-spacing:normal;text-anchor:start;fill:none;fill-opacity:1;fill-rule:evenodd;stroke:#000000;stroke-linecap:butt;stroke-linejoin:miter;stroke-miterlimit:10.43299961;stroke-dasharray:none;stroke-dashoffset:0;stroke-opacity:1">
<path
   id="path965"
   d="m 155.46,658.84 h -0.25 c -0.05,-0.25 -0.09,-0.48 -0.18,-0.72 -0.05,-0.16 -0.08,-0.24 -0.65,-0.24 h -0.8 c 0.13,0.56 0.44,1.03 0.89,1.69 0.46,0.71 0.87,1.39 0.87,2.17 0,1.39 -1.34,2.5 -3.03,2.5 -1.71,0 -3.04,-1.13 -3.04,-2.5 0,-0.78 0.41,-1.46 0.88,-2.17 0.44,-0.66 0.76,-1.13 0.89,-1.69 h -0.8 c -0.58,0 -0.61,0.08 -0.66,0.23 -0.08,0.23 -0.13,0.49 -0.18,0.73 h -0.25 l 0.33,-1.61 h 1.59 c 0.22,0 0.25,0 0.25,0.21 0,0.7 -0.3,1.57 -0.53,2.21 -0.21,0.57 -0.49,1.36 -0.49,2.11 0,1.58 1.1,2.26 2,2.26 0.96,0 2.02,-0.72 2.02,-2.26 0,-0.75 -0.27,-1.5 -0.56,-2.32 -0.15,-0.42 -0.47,-1.31 -0.47,-2 0,-0.21 0.03,-0.21 0.26,-0.21 h 1.58 z"
   inkscape:connector-curvature="0"
   style="fill:#000000;stroke-width:0" />
<path
   id="path967"
   d="m 159.52,657.96 -0.01,0.14 v 0.14 0.13 l -0.01,0.12 -0.01,0.13 -0.02,0.12 -0.02,0.11 -0.02,0.11 -0.03,0.11 -0.02,0.11 -0.04,0.1 -0.04,0.1 -0.04,0.1 -0.05,0.09 -0.05,0.1 -0.03,0.04 -0.03,0.05 c -0.21,0.32 -0.65,0.6 -1.21,0.6 v -0.2 c 0.38,0 0.74,-0.23 0.87,-0.63 0.11,-0.37 0.12,-0.87 0.12,-1.48 0,-0.52 0,-1.03 -0.09,-1.47 -0.14,-0.63 -0.62,-0.78 -0.9,-0.78 v 0 c -0.32,0 -0.74,0.18 -0.88,0.75 -0.1,0.42 -0.1,0.98 -0.1,1.5 0,0.51 0,1.04 0.1,1.42 0.15,0.55 0.6,0.69 0.88,0.69 v 0.2 c -1.62,0 -1.62,-1.9 -1.62,-2.4 0,-0.5 0,-2.36 1.62,-2.36 1.63,0 1.63,1.86 1.63,2.36 z"
   inkscape:connector-curvature="0"
   style="fill:#000000;stroke-width:0" />
</g>    <g
       style="font-style:normal;font-variant:normal;font-weight:normal;font-stretch:normal;letter-spacing:normal;word-spacing:normal;text-anchor:start;fill:none;fill-opacity:1;fill-rule:evenodd;stroke:#000000;stroke-linecap:butt;stroke-linejoin:miter;stroke-miterlimit:10.43299961;stroke-dasharray:none;stroke-dashoffset:0;stroke-opacity:1"
       ns0:jacobian_sqrt="0.705556"
       ns0:alignment="middle center"
       ns0:scale="1.99999997165"
       ns0:preamble="C:\\Users\\Tom\\AppData\\Roaming\\inkscape\\extensions\\textext\\default_packages.tex"
       ns0:text="$\\Omega_{n}$"
       ns0:pdfconverter="pstoedit"
       ns0:texconverter="pdflatex"
       ns0:version="0.10.2"
       word-spacing="normal"
       letter-spacing="normal"
       font-size-adjust="none"
       font-stretch="normal"
       font-weight="normal"
       font-variant="normal"
       font-style="normal"
       stroke-miterlimit="10.433"
       xml:space="preserve"
       transform="matrix(0.705556,0,0,-0.705556,-12.668319,592.54592)"
       id="g1058">
<path
   id="path1054"
   style="fill:#000000;fill-opacity:1;stroke:#000000;stroke-width:0;stroke-opacity:1"
   d="m 155.46,658.84 h -0.25 c -0.05,-0.25 -0.09,-0.48 -0.18,-0.72 -0.05,-0.16 -0.08,-0.24 -0.65,-0.24 h -0.8 c 0.13,0.56 0.44,1.03 0.89,1.69 0.46,0.71 0.87,1.39 0.87,2.17 0,1.39 -1.34,2.5 -3.03,2.5 -1.71,0 -3.04,-1.13 -3.04,-2.5 0,-0.78 0.41,-1.46 0.88,-2.17 0.44,-0.66 0.76,-1.13 0.89,-1.69 h -0.8 c -0.58,0 -0.61,0.08 -0.66,0.23 -0.08,0.23 -0.13,0.49 -0.18,0.73 h -0.25 l 0.33,-1.61 h 1.59 c 0.22,0 0.25,0 0.25,0.21 0,0.7 -0.3,1.57 -0.53,2.21 -0.21,0.57 -0.49,1.36 -0.49,2.11 0,1.58 1.1,2.26 2,2.26 0.96,0 2.02,-0.72 2.02,-2.26 0,-0.75 -0.27,-1.5 -0.56,-2.32 -0.15,-0.42 -0.47,-1.31 -0.47,-2 0,-0.21 0.03,-0.21 0.26,-0.21 h 1.58 z"
   inkscape:connector-curvature="0" />
<path
   id="path1056"
   style="fill:#000000;fill-opacity:1;stroke:#000000;stroke-width:0;stroke-opacity:1"
   d="m 156.76,656.18 v -0.01 -0.01 l -0.01,-0.01 v -0.01 -0.01 l -0.01,-0.01 v -0.01 -0.01 l -0.01,-0.02 v -0.03 l -0.01,-0.02 v -0.02 L 156.71,656 v -0.01 -0.01 -0.01 l -0.01,-0.01 v -0.01 -0.01 -0.01 0 -0.01 l -0.01,-0.01 v 0 -0.01 0 0 0 0 -0.01 c 0,-0.15 0.13,-0.22 0.24,-0.22 0.12,0 0.24,0.09 0.27,0.15 0.04,0.07 0.09,0.29 0.13,0.44 0.03,0.13 0.11,0.45 0.15,0.62 0.04,0.15 0.09,0.31 0.12,0.47 0.08,0.28 0.09,0.34 0.29,0.62 0.2,0.28 0.53,0.64 1.05,0.64 0.41,0 0.41,-0.35 0.41,-0.48 0,-0.42 -0.3,-1.19 -0.41,-1.48 -0.07,-0.2 -0.1,-0.26 -0.1,-0.38 0,-0.37 0.31,-0.6 0.66,-0.6 0.7,0 1.01,0.96 1.01,1.06 0,0.1 -0.09,0.1 -0.11,0.1 -0.1,0 -0.11,-0.05 -0.14,-0.12 -0.16,-0.56 -0.46,-0.84 -0.74,-0.84 -0.14,0 -0.17,0.09 -0.17,0.24 0,0.16 0.03,0.25 0.16,0.56 0.08,0.22 0.37,0.96 0.37,1.35 0,0.67 -0.54,0.79 -0.91,0.79 -0.58,0 -0.97,-0.36 -1.18,-0.64 -0.05,0.49 -0.46,0.64 -0.75,0.64 -0.3,0 -0.46,-0.22 -0.55,-0.38 -0.15,-0.26 -0.25,-0.65 -0.25,-0.69 0,-0.09 0.1,-0.09 0.12,-0.09 0.09,0 0.1,0.02 0.15,0.21 0.1,0.41 0.24,0.75 0.51,0.75 0.18,0 0.23,-0.15 0.23,-0.34 0,-0.13 -0.06,-0.39 -0.11,-0.57 -0.05,-0.19 -0.12,-0.48 -0.15,-0.63 z"
   inkscape:connector-curvature="0" />
</g>    <g
       style="font-style:normal;font-variant:normal;font-weight:normal;font-stretch:normal;letter-spacing:normal;word-spacing:normal;text-anchor:start;fill:none;fill-opacity:1;fill-rule:evenodd;stroke:#000000;stroke-linecap:butt;stroke-linejoin:miter;stroke-miterlimit:10.43299961;stroke-dasharray:none;stroke-dashoffset:0;stroke-opacity:1"
       ns0:jacobian_sqrt="0.705556"
       ns0:alignment="middle center"
       ns0:scale="1.99999997165"
       ns0:preamble="C:\\Users\\Tom\\AppData\\Roaming\\inkscape\\extensions\\textext\\default_packages.tex"
       ns0:text="$\\Omega_{n+1}$"
       ns0:pdfconverter="pstoedit"
       ns0:texconverter="pdflatex"
       ns0:version="0.10.2"
       word-spacing="normal"
       letter-spacing="normal"
       font-size-adjust="none"
       font-stretch="normal"
       font-weight="normal"
       font-variant="normal"
       font-style="normal"
       stroke-miterlimit="10.433"
       xml:space="preserve"
       transform="matrix(0.705556,0,0,-0.705556,56.274537,585.47778)"
       id="g1101">
<path
   id="path1093"
   style="fill:#000000;fill-opacity:1;stroke:#000000;stroke-width:0;stroke-opacity:1"
   d="m 155.46,658.84 h -0.25 c -0.05,-0.25 -0.09,-0.48 -0.18,-0.72 -0.05,-0.16 -0.08,-0.24 -0.65,-0.24 h -0.8 c 0.13,0.56 0.44,1.03 0.89,1.69 0.46,0.71 0.87,1.39 0.87,2.17 0,1.39 -1.34,2.5 -3.03,2.5 -1.71,0 -3.04,-1.13 -3.04,-2.5 0,-0.78 0.41,-1.46 0.88,-2.17 0.44,-0.66 0.76,-1.13 0.89,-1.69 h -0.8 c -0.58,0 -0.61,0.08 -0.66,0.23 -0.08,0.23 -0.13,0.49 -0.18,0.73 h -0.25 l 0.33,-1.61 h 1.59 c 0.22,0 0.25,0 0.25,0.21 0,0.7 -0.3,1.57 -0.53,2.21 -0.21,0.57 -0.49,1.36 -0.49,2.11 0,1.58 1.1,2.26 2,2.26 0.96,0 2.02,-0.72 2.02,-2.26 0,-0.75 -0.27,-1.5 -0.56,-2.32 -0.15,-0.42 -0.47,-1.31 -0.47,-2 0,-0.21 0.03,-0.21 0.26,-0.21 h 1.58 z"
   inkscape:connector-curvature="0" />
<path
   id="path1095"
   style="fill:#000000;fill-opacity:1;stroke:#000000;stroke-width:0;stroke-opacity:1"
   d="m 156.76,656.18 v -0.01 -0.01 l -0.01,-0.01 v -0.01 -0.01 l -0.01,-0.01 v -0.01 -0.01 l -0.01,-0.02 v -0.03 l -0.01,-0.02 v -0.02 L 156.71,656 v -0.01 -0.01 -0.01 l -0.01,-0.01 v -0.01 -0.01 -0.01 0 -0.01 l -0.01,-0.01 v 0 -0.01 0 0 0 0 -0.01 c 0,-0.15 0.13,-0.22 0.24,-0.22 0.12,0 0.24,0.09 0.27,0.15 0.04,0.07 0.09,0.29 0.13,0.44 0.03,0.13 0.11,0.45 0.15,0.62 0.04,0.15 0.09,0.31 0.12,0.47 0.08,0.28 0.09,0.34 0.29,0.62 0.2,0.28 0.53,0.64 1.05,0.64 0.41,0 0.41,-0.35 0.41,-0.48 0,-0.42 -0.3,-1.19 -0.41,-1.48 -0.07,-0.2 -0.1,-0.26 -0.1,-0.38 0,-0.37 0.31,-0.6 0.66,-0.6 0.7,0 1.01,0.96 1.01,1.06 0,0.1 -0.09,0.1 -0.11,0.1 -0.1,0 -0.11,-0.05 -0.14,-0.12 -0.16,-0.56 -0.46,-0.84 -0.74,-0.84 -0.14,0 -0.17,0.09 -0.17,0.24 0,0.16 0.03,0.25 0.16,0.56 0.08,0.22 0.37,0.96 0.37,1.35 0,0.67 -0.54,0.79 -0.91,0.79 -0.58,0 -0.97,-0.36 -1.18,-0.64 -0.05,0.49 -0.46,0.64 -0.75,0.64 -0.3,0 -0.46,-0.22 -0.55,-0.38 -0.15,-0.26 -0.25,-0.65 -0.25,-0.69 0,-0.09 0.1,-0.09 0.12,-0.09 0.09,0 0.1,0.02 0.15,0.21 0.1,0.41 0.24,0.75 0.51,0.75 0.18,0 0.23,-0.15 0.23,-0.34 0,-0.13 -0.06,-0.39 -0.11,-0.57 -0.05,-0.19 -0.12,-0.48 -0.15,-0.63 z"
   inkscape:connector-curvature="0" />
<path
   id="path1097"
   style="fill:#000000;fill-opacity:1;stroke:#000000;stroke-width:0;stroke-opacity:1"
   d="m 164.07,657.31 h 2.14 c 0.09,0 0.26,0 0.26,0.17 0,0.17 -0.16,0.17 -0.26,0.17 h -2.14 v 2.14 c 0,0.09 0,0.25 -0.17,0.25 -0.17,0 -0.17,-0.15 -0.17,-0.25 v -2.14 h -2.15 c -0.09,0 -0.26,0 -0.26,-0.16 0,-0.18 0.16,-0.18 0.26,-0.18 h 2.15 v -2.13 c 0,-0.09 0,-0.26 0.16,-0.26 0.18,0 0.18,0.16 0.18,0.26 z"
   inkscape:connector-curvature="0" />
<path
   id="path1099"
   style="fill:#000000;fill-opacity:1;stroke:#000000;stroke-width:0;stroke-opacity:1"
   d="m 169.29,660.16 v 0.01 0.01 0.01 0.01 0 0.01 0.01 0.01 0 0.01 0.01 0 0.01 0 0.01 h -0.01 v 0.01 0 0.01 0.01 0.01 h -0.01 v 0.01 l -0.01,0.01 v 0 l -0.01,0.01 v 0 h -0.01 l -0.01,0.01 h -0.01 v 0 h -0.01 -0.01 v 0 h -0.01 l -0.01,0.01 v 0 h -0.01 v 0 h -0.01 -0.01 v 0 h -0.01 -0.01 -0.01 v 0 h -0.01 -0.01 -0.01 -0.01 c -0.45,-0.44 -1.08,-0.45 -1.37,-0.45 v -0.25 c 0.17,0 0.63,0 1.01,0.2 v -3.55 c 0,-0.23 0,-0.32 -0.7,-0.32 h -0.26 v -0.25 c 0.12,0.01 0.98,0.03 1.24,0.03 0.22,0 1.1,-0.02 1.26,-0.03 v 0.25 h -0.27 c -0.7,0 -0.7,0.09 -0.7,0.32 z"
   inkscape:connector-curvature="0" />
</g>    <g
       style="font-style:normal;font-variant:normal;font-weight:normal;font-stretch:normal;letter-spacing:normal;word-spacing:normal;text-anchor:start;fill:none;fill-opacity:1;fill-rule:evenodd;stroke:#000000;stroke-linecap:butt;stroke-linejoin:miter;stroke-miterlimit:10.43299961;stroke-dasharray:none;stroke-dashoffset:0;stroke-opacity:1"
       ns0:jacobian_sqrt="0.705556"
       ns0:alignment="middle center"
       ns0:scale="1.99999997165"
       ns0:preamble="C:\\Users\\Tom\\AppData\\Roaming\\inkscape\\extensions\\textext\\default_packages.tex"
       ns0:text="$\\Omega_{n+\\frac{1}{2}}$"
       ns0:pdfconverter="pstoedit"
       ns0:texconverter="pdflatex"
       ns0:version="0.10.2"
       word-spacing="normal"
       letter-spacing="normal"
       font-size-adjust="none"
       font-stretch="normal"
       font-weight="normal"
       font-variant="normal"
       font-style="normal"
       stroke-miterlimit="10.433"
       xml:space="preserve"
       transform="matrix(0.705556,0,0,-0.705556,14.627104,533.55493)"
       id="g1152">
<path
   id="path1140"
   style="fill:#000000;fill-opacity:1;stroke:#000000;stroke-width:0;stroke-opacity:1"
   d="m 155.46,658.84 h -0.25 c -0.05,-0.25 -0.09,-0.48 -0.18,-0.72 -0.05,-0.16 -0.08,-0.24 -0.65,-0.24 h -0.8 c 0.13,0.56 0.44,1.03 0.89,1.69 0.46,0.71 0.87,1.39 0.87,2.17 0,1.39 -1.34,2.5 -3.03,2.5 -1.71,0 -3.04,-1.13 -3.04,-2.5 0,-0.78 0.41,-1.46 0.88,-2.17 0.44,-0.66 0.76,-1.13 0.89,-1.69 h -0.8 c -0.58,0 -0.61,0.08 -0.66,0.23 -0.08,0.23 -0.13,0.49 -0.18,0.73 h -0.25 l 0.33,-1.61 h 1.59 c 0.22,0 0.25,0 0.25,0.21 0,0.7 -0.3,1.57 -0.53,2.21 -0.21,0.57 -0.49,1.36 -0.49,2.11 0,1.58 1.1,2.26 2,2.26 0.96,0 2.02,-0.72 2.02,-2.26 0,-0.75 -0.27,-1.5 -0.56,-2.32 -0.15,-0.42 -0.47,-1.31 -0.47,-2 0,-0.21 0.03,-0.21 0.26,-0.21 h 1.58 z"
   inkscape:connector-curvature="0" />
<path
   id="path1142"
   style="fill:#000000;fill-opacity:1;stroke:#000000;stroke-width:0;stroke-opacity:1"
   d="m 156.76,655.22 v -0.01 -0.01 l -0.01,-0.01 v -0.01 -0.01 l -0.01,-0.01 v -0.01 -0.01 l -0.01,-0.02 v -0.03 l -0.01,-0.02 v -0.02 l -0.01,-0.01 v -0.01 -0.01 -0.01 L 156.7,655 v -0.01 -0.01 -0.01 0 -0.01 l -0.01,-0.01 v 0 -0.01 0 0 -0.01 0 0 c 0,-0.15 0.13,-0.22 0.24,-0.22 0.12,0 0.24,0.09 0.27,0.15 0.04,0.06 0.09,0.29 0.13,0.43 0.03,0.14 0.11,0.46 0.15,0.63 0.04,0.15 0.09,0.3 0.12,0.47 0.08,0.28 0.09,0.34 0.29,0.62 0.2,0.28 0.53,0.64 1.05,0.64 0.41,0 0.41,-0.35 0.41,-0.49 0,-0.41 -0.3,-1.19 -0.41,-1.48 -0.07,-0.19 -0.1,-0.25 -0.1,-0.37 0,-0.37 0.31,-0.6 0.66,-0.6 0.7,0 1.01,0.96 1.01,1.06 0,0.09 -0.09,0.09 -0.11,0.09 -0.1,0 -0.11,-0.04 -0.14,-0.11 -0.16,-0.56 -0.46,-0.85 -0.74,-0.85 -0.14,0 -0.17,0.1 -0.17,0.25 0,0.16 0.03,0.25 0.16,0.56 0.08,0.22 0.37,0.95 0.37,1.34 0,0.68 -0.54,0.8 -0.91,0.8 -0.58,0 -0.97,-0.36 -1.18,-0.64 -0.05,0.48 -0.46,0.64 -0.75,0.64 -0.3,0 -0.46,-0.22 -0.55,-0.38 -0.15,-0.26 -0.25,-0.65 -0.25,-0.69 0,-0.09 0.1,-0.09 0.12,-0.09 0.09,0 0.1,0.02 0.15,0.21 0.1,0.41 0.24,0.75 0.51,0.75 0.18,0 0.23,-0.15 0.23,-0.34 0,-0.13 -0.06,-0.39 -0.11,-0.58 -0.05,-0.19 -0.12,-0.47 -0.15,-0.62 z"
   inkscape:connector-curvature="0" />
<path
   id="path1144"
   style="fill:#000000;fill-opacity:1;stroke:#000000;stroke-width:0;stroke-opacity:1"
   d="m 164.07,656.35 h 2.14 c 0.09,0 0.26,0 0.26,0.17 0,0.17 -0.16,0.17 -0.26,0.17 h -2.14 v 2.14 c 0,0.09 0,0.25 -0.17,0.25 -0.17,0 -0.17,-0.16 -0.17,-0.25 v -2.14 h -2.15 c -0.09,0 -0.26,0 -0.26,-0.17 0,-0.17 0.16,-0.17 0.26,-0.17 h 2.15 v -2.13 c 0,-0.09 0,-0.26 0.16,-0.26 0.18,0 0.18,0.16 0.18,0.26 z"
   inkscape:connector-curvature="0" />
<path
   id="path1146"
   style="fill:#000000;fill-opacity:1;stroke:#000000;stroke-width:0;stroke-opacity:1"
   d="m 170.12,660.62 v 0 0.01 0.01 0 0.01 0 0.01 0.01 0 0.01 0 0.01 0 0 0.01 0 0.01 h -0.01 v 0 0.01 0 0.01 h -0.01 v 0.01 0 l -0.01,0.01 v 0 h -0.01 v 0.01 h -0.01 -0.01 v 0 h -0.01 -0.01 v 0 h -0.01 v 0 h -0.01 v 0 h -0.01 v 0 H 170 v 0 h -0.01 -0.01 v 0 h -0.01 -0.01 v 0.01 h -0.01 -0.01 c -0.35,-0.32 -0.9,-0.32 -1,-0.32 h -0.09 v -0.22 h 0.09 c 0.11,0 0.44,0.01 0.72,0.14 v -2.49 c 0,-0.15 0,-0.2 -0.52,-0.2 h -0.25 v -0.22 c 0.27,0.02 0.71,0.02 1,0.02 0.29,0 0.73,0 1.01,-0.02 v 0.22 h -0.25 c -0.53,0 -0.53,0.05 -0.53,0.2 z"
   inkscape:connector-curvature="0" />
<line
   id="line1148"
   style="fill-opacity:1;stroke:#000000;stroke-width:0.33899999;stroke-opacity:1"
   y2="656.52002"
   x2="171.53"
   y1="656.52002"
   x1="168.14" />
<path
   id="path1150"
   style="fill:#000000;fill-opacity:1;stroke:#000000;stroke-width:0;stroke-opacity:1"
   d="m 171.07,653.34 h -0.21 c -0.01,-0.1 -0.06,-0.41 -0.14,-0.45 -0.04,-0.03 -0.46,-0.03 -0.54,-0.03 h -0.97 c 0.33,0.24 0.7,0.52 1,0.72 0.44,0.3 0.86,0.59 0.86,1.12 0,0.63 -0.6,0.99 -1.31,0.99 -0.67,0 -1.16,-0.39 -1.16,-0.88 0,-0.26 0.22,-0.3 0.28,-0.3 0.14,0 0.3,0.09 0.3,0.29 0,0.18 -0.13,0.28 -0.29,0.3 0.14,0.22 0.43,0.37 0.76,0.37 0.49,0 0.89,-0.29 0.89,-0.78 0,-0.41 -0.29,-0.73 -0.67,-1.05 l -1.21,-1.03 c -0.05,-0.05 -0.06,-0.05 -0.06,-0.08 v -0.15 h 2.31 z"
   inkscape:connector-curvature="0" />
</g>    <g
       style="font-style:normal;font-variant:normal;font-weight:normal;font-stretch:normal;letter-spacing:normal;word-spacing:normal;text-anchor:start;fill:none;fill-opacity:1;fill-rule:evenodd;stroke:#000000;stroke-linecap:butt;stroke-linejoin:miter;stroke-miterlimit:10.43299961;stroke-dasharray:none;stroke-dashoffset:0;stroke-opacity:1"
       ns0:jacobian_sqrt="0.705556"
       ns0:alignment="middle center"
       ns0:scale="1.99999997165"
       ns0:preamble="C:\\Users\\Tom\\AppData\\Roaming\\inkscape\\extensions\\textext\\default_packages.tex"
       ns0:text="$\\Omega_c$"
       ns0:pdfconverter="pstoedit"
       ns0:texconverter="pdflatex"
       ns0:version="0.10.2"
       word-spacing="normal"
       letter-spacing="normal"
       font-size-adjust="none"
       font-stretch="normal"
       font-weight="normal"
       font-variant="normal"
       font-style="normal"
       stroke-miterlimit="10.433"
       xml:space="preserve"
       transform="matrix(0.705556,0,0,-0.705556,-7.352461,642.24978)"
       id="g1201">
<path
   id="path1197"
   style="fill:#000000;fill-opacity:1;stroke:#000000;stroke-width:0;stroke-opacity:1"
   d="m 155.46,658.84 h -0.25 c -0.05,-0.25 -0.09,-0.48 -0.18,-0.72 -0.05,-0.16 -0.08,-0.24 -0.65,-0.24 h -0.8 c 0.13,0.56 0.44,1.03 0.89,1.69 0.46,0.71 0.87,1.39 0.87,2.17 0,1.39 -1.34,2.5 -3.03,2.5 -1.71,0 -3.04,-1.13 -3.04,-2.5 0,-0.78 0.41,-1.46 0.88,-2.17 0.44,-0.66 0.76,-1.13 0.89,-1.69 h -0.8 c -0.58,0 -0.61,0.08 -0.66,0.23 -0.08,0.23 -0.13,0.49 -0.18,0.73 h -0.25 l 0.33,-1.61 h 1.59 c 0.22,0 0.25,0 0.25,0.21 0,0.7 -0.3,1.57 -0.53,2.21 -0.21,0.57 -0.49,1.36 -0.49,2.11 0,1.58 1.1,2.26 2,2.26 0.96,0 2.02,-0.72 2.02,-2.26 0,-0.75 -0.27,-1.5 -0.56,-2.32 -0.15,-0.42 -0.47,-1.31 -0.47,-2 0,-0.21 0.03,-0.21 0.26,-0.21 h 1.58 z"
   inkscape:connector-curvature="0" />
<path
   id="path1199"
   style="fill:#000000;fill-opacity:1;stroke:#000000;stroke-width:0;stroke-opacity:1"
   d="m 158.97,658.4 h -0.02 l -0.03,-0.01 h -0.02 l -0.02,-0.01 -0.02,-0.01 h -0.02 l -0.01,-0.01 -0.02,-0.01 -0.02,-0.01 -0.01,-0.01 -0.02,-0.01 -0.01,-0.02 -0.02,-0.01 -0.01,-0.01 -0.01,-0.01 -0.01,-0.02 -0.01,-0.01 -0.01,-0.02 -0.01,-0.01 -0.01,-0.02 -0.01,-0.01 v -0.02 l -0.01,-0.01 -0.01,-0.02 v -0.01 -0.02 l -0.01,-0.01 v -0.02 -0.01 -0.02 l -0.01,-0.01 v -0.01 c 0,-0.19 0.15,-0.26 0.28,-0.26 0.15,0 0.4,0.11 0.4,0.44 0,0.47 -0.55,0.61 -0.93,0.61 -1.05,0 -2.02,-0.96 -2.02,-1.93 0,-0.6 0.42,-1.21 1.29,-1.21 1.19,0 1.74,0.69 1.74,0.79 0,0.04 -0.06,0.12 -0.12,0.12 -0.04,0 -0.06,-0.02 -0.11,-0.07 -0.55,-0.64 -1.37,-0.64 -1.49,-0.64 -0.5,0 -0.73,0.34 -0.73,0.77 0,0.2 0.1,0.96 0.46,1.44 0.27,0.34 0.63,0.53 0.98,0.53 0.1,0 0.44,-0.01 0.61,-0.21 z"
   inkscape:connector-curvature="0" />
</g>  </g>
</svg>
