<?xml version="1.0" encoding="UTF-8" standalone="no"?>
<!-- Created with Inkscape (http://www.inkscape.org/) -->

<svg
   xmlns:ns0="http://www.iki.fi/pav/software/textext/"
   xmlns:dc="http://purl.org/dc/elements/1.1/"
   xmlns:cc="http://creativecommons.org/ns#"
   xmlns:rdf="http://www.w3.org/1999/02/22-rdf-syntax-ns#"
   xmlns:svg="http://www.w3.org/2000/svg"
   xmlns="http://www.w3.org/2000/svg"
   xmlns:sodipodi="http://sodipodi.sourceforge.net/DTD/sodipodi-0.dtd"
   xmlns:inkscape="http://www.inkscape.org/namespaces/inkscape"
   width="210mm"
   height="297mm"
   viewBox="0 0 210 297"
   version="1.1"
   id="svg8"
   inkscape:version="0.92.4 (5da689c313, 2019-01-14)"
   sodipodi:docname="Ch3_drawing_configurationsv3.svg">
  <defs
     id="defs2">
    <marker
       inkscape:stockid="Arrow1Lend"
       orient="auto"
       refY="0.0"
       refX="0.0"
       id="marker1966"
       style="overflow:visible;"
       inkscape:isstock="true">
      <path
         id="path1964"
         d="M 0.0,0.0 L 5.0,-5.0 L -12.5,0.0 L 5.0,5.0 L 0.0,0.0 z "
         style="fill-rule:evenodd;stroke:#000000;stroke-width:1pt;stroke-opacity:1;fill:#000000;fill-opacity:1"
         transform="scale(0.8) rotate(180) translate(12.5,0)" />
    </marker>
    <marker
       inkscape:stockid="Arrow1Lend"
       orient="auto"
       refY="0.0"
       refX="0.0"
       id="marker1804"
       style="overflow:visible;"
       inkscape:isstock="true">
      <path
         id="path1802"
         d="M 0.0,0.0 L 5.0,-5.0 L -12.5,0.0 L 5.0,5.0 L 0.0,0.0 z "
         style="fill-rule:evenodd;stroke:#000000;stroke-width:1pt;stroke-opacity:1;fill:#000000;fill-opacity:1"
         transform="scale(0.8) rotate(180) translate(12.5,0)" />
    </marker>
    <inkscape:path-effect
       effect="spiro"
       id="path-effect1800"
       is_visible="true" />
    <marker
       inkscape:stockid="Arrow1Lend"
       orient="auto"
       refY="0.0"
       refX="0.0"
       id="marker1754"
       style="overflow:visible;"
       inkscape:isstock="true">
      <path
         id="path1752"
         d="M 0.0,0.0 L 5.0,-5.0 L -12.5,0.0 L 5.0,5.0 L 0.0,0.0 z "
         style="fill-rule:evenodd;stroke:#000000;stroke-width:1pt;stroke-opacity:1;fill:#000000;fill-opacity:1"
         transform="scale(0.8) rotate(180) translate(12.5,0)" />
    </marker>
    <marker
       inkscape:stockid="Arrow2Lend"
       orient="auto"
       refY="0.0"
       refX="0.0"
       id="marker1620"
       style="overflow:visible;"
       inkscape:isstock="true">
      <path
         id="path1618"
         style="fill-rule:evenodd;stroke-width:0.625;stroke-linejoin:round;stroke:#000000;stroke-opacity:1;fill:#ffffff;fill-opacity:1"
         d="M 8.7185878,4.0337352 L -2.2072895,0.016013256 L 8.7185884,-4.0017078 C 6.9730900,-1.6296469 6.9831476,1.6157441 8.7185878,4.0337352 z "
         transform="scale(1.1) rotate(180) translate(1,0)" />
    </marker>
    <marker
       inkscape:stockid="Arrow2Lend"
       orient="auto"
       refY="0.0"
       refX="0.0"
       id="marker1538"
       style="overflow:visible;"
       inkscape:isstock="true">
      <path
         id="path1536"
         style="fill-rule:evenodd;stroke-width:0.625;stroke-linejoin:round;stroke:#000000;stroke-opacity:1;fill:#ffffff;fill-opacity:1"
         d="M 8.7185878,4.0337352 L -2.2072895,0.016013256 L 8.7185884,-4.0017078 C 6.9730900,-1.6296469 6.9831476,1.6157441 8.7185878,4.0337352 z "
         transform="scale(1.1) rotate(180) translate(1,0)" />
    </marker>
    <marker
       inkscape:stockid="Arrow1Lend"
       orient="auto"
       refY="0.0"
       refX="0.0"
       id="Arrow1Lend"
       style="overflow:visible;"
       inkscape:isstock="true">
      <path
         id="path1225"
         d="M 0.0,0.0 L 5.0,-5.0 L -12.5,0.0 L 5.0,5.0 L 0.0,0.0 z "
         style="fill-rule:evenodd;stroke:#000000;stroke-width:1pt;stroke-opacity:1;fill:#ffffff;fill-opacity:1"
         transform="scale(0.8) rotate(180) translate(12.5,0)" />
    </marker>
    <marker
       inkscape:stockid="Arrow2Lend"
       orient="auto"
       refY="0.0"
       refX="0.0"
       id="Arrow2Lend"
       style="overflow:visible;"
       inkscape:isstock="true">
      <path
         id="path1243"
         style="fill-rule:evenodd;stroke-width:0.625;stroke-linejoin:round;stroke:#000000;stroke-opacity:1;fill:#ffffff;fill-opacity:1"
         d="M 8.7185878,4.0337352 L -2.2072895,0.016013256 L 8.7185884,-4.0017078 C 6.9730900,-1.6296469 6.9831476,1.6157441 8.7185878,4.0337352 z "
         transform="scale(1.1) rotate(180) translate(1,0)" />
    </marker>
    <inkscape:path-effect
       effect="spiro"
       id="path-effect827"
       is_visible="true" />
    <inkscape:path-effect
       effect="spiro"
       id="path-effect827-4"
       is_visible="true" />
    <inkscape:path-effect
       effect="spiro"
       id="path-effect827-4-9"
       is_visible="true" />
    <inkscape:path-effect
       effect="spiro"
       id="path-effect827-4-5"
       is_visible="true" />
    <inkscape:path-effect
       effect="spiro"
       id="path-effect827-4-4"
       is_visible="true" />
    <inkscape:path-effect
       effect="spiro"
       id="path-effect827-4-53"
       is_visible="true" />
  </defs>
  <sodipodi:namedview
     id="base"
     pagecolor="#ffffff"
     bordercolor="#666666"
     borderopacity="1.0"
     inkscape:pageopacity="0.0"
     inkscape:pageshadow="2"
     inkscape:zoom="1.4"
     inkscape:cx="310.50388"
     inkscape:cy="628.45039"
     inkscape:document-units="mm"
     inkscape:current-layer="layer1"
     showgrid="false"
     inkscape:window-width="2400"
     inkscape:window-height="1421"
     inkscape:window-x="2391"
     inkscape:window-y="-9"
     inkscape:window-maximized="1" />
  <metadata
     id="metadata5">
    <rdf:RDF>
      <cc:Work
         rdf:about="">
        <dc:format>image/svg+xml</dc:format>
        <dc:type
           rdf:resource="http://purl.org/dc/dcmitype/StillImage" />
        <dc:title></dc:title>
      </cc:Work>
    </rdf:RDF>
  </metadata>
  <g
     inkscape:label="Layer 1"
     inkscape:groupmode="layer"
     id="layer1">
    <path
       style="fill:none;stroke:#000000;stroke-width:0.125;stroke-linecap:butt;stroke-linejoin:miter;stroke-miterlimit:4;stroke-dasharray:1.50000004,1.50000004;stroke-dashoffset:0;stroke-opacity:1"
       d="m 130.71656,100.85721 c -0.26927,0.47407 -23.19548,23.40724 -23.19548,23.40724"
       id="path919-3-5"
       inkscape:connector-curvature="0" />
    <path
       style="fill:none;stroke:#000000;stroke-width:0.125;stroke-linecap:butt;stroke-linejoin:miter;stroke-miterlimit:4;stroke-dasharray:1.50000004,1.50000004;stroke-dashoffset:0;stroke-opacity:1"
       d="m 140.73115,101.62698 c 0.42276,0.34427 19.23006,26.76068 19.23006,26.76068"
       id="path919-3"
       inkscape:connector-curvature="0" />
    <path
       transform="rotate(40.900164,187.13251,132.73091)"
       style="fill:#e6e6e6;stroke:#000000;stroke-width:0.4;stroke-linecap:butt;stroke-linejoin:miter;stroke-miterlimit:4;stroke-dasharray:1.59999999, 1.59999998999999993;stroke-opacity:1;stroke-dashoffset:0;fill-opacity:1"
       d="m 123.7872,118.59524 c -1.44236,0.40636 -2.94623,0.60088 -4.34673,1.13392 -2.05373,0.78167 -3.76241,2.24027 -5.58679,3.46519 -0.91219,0.61246 -1.867,1.17348 -2.89691,1.5562 -1.02992,0.38272 -2.14179,0.58269 -3.23356,0.45927 -0.66728,-0.0754 -1.31491,-0.26919 -1.97457,-0.39487 -0.65967,-0.12568 -1.35254,-0.18123 -1.99418,0.0169 -0.77091,0.23804 -1.3984,0.82769 -1.81781,1.51693 -0.41941,0.68925 -0.65064,1.47575 -0.82802,2.26283 -0.84967,3.7702 -0.55195,7.70314 0,11.52828 0.61274,4.24642 1.60277,8.604 4.21088,12.01066 1.30406,1.70333 3.00741,3.12843 4.99285,3.94076 1.98545,0.81234 4.25923,0.9831 6.29329,0.30155 1.3871,-0.46477 2.64426,-1.30762 4.07734,-1.60146 0.71654,-0.14693 1.478,-0.14765 2.16262,0.10988 0.3423,0.12877 0.66197,0.32152 0.9255,0.57511 0.26352,0.25359 0.46988,0.5687 0.58306,0.91647 0.0995,0.30573 0.12615,0.62963 0.18898,0.94495 0.20822,1.045 0.82676,1.99254 1.66446,2.65105 0.8377,0.65851 1.88427,1.03285 2.94662,1.11525 1.06235,0.0824 2.13841,-0.12038 3.12301,-0.52773 0.98461,-0.40734 1.87968,-1.01549 2.6645,-1.7362 1.56965,-1.44142 2.68461,-3.30449 3.67659,-5.19062 0.99197,-1.88612 1.88995,-3.83386 3.12274,-5.57217 1.52218,-2.14636 3.55753,-3.98284 4.53571,-6.4256 0.69201,-1.72812 0.79681,-3.62503 0.94494,-5.48065 0.14637,-1.83354 0.33807,-3.7184 -0.18898,-5.48065 -0.33255,-1.11191 -0.94325,-2.12961 -1.70265,-3.00725 -0.7594,-0.87763 -1.66558,-1.61967 -2.62797,-2.26833 -1.92476,-1.29731 -4.07165,-2.22651 -6.06373,-3.41788 -1.61034,-0.96307 -3.11966,-2.09752 -4.7893,-2.95366 -1.66964,-0.85615 -3.55966,-1.42979 -5.41605,-1.15682 -0.90419,0.13295 -1.76618,0.46087 -2.64584,0.7087 z"
       id="path825-2-4"
       inkscape:connector-curvature="0"
       inkscape:path-effect="#path-effect827-4-53"
       inkscape:original-d="m 123.7872,118.59524 c -1.63937,0.20492 -2.74081,0.59862 -4.34673,1.13392 -3.56201,1.18735 -7.67192,4.19351 -11.71726,5.48066 -1.15651,0.36798 -3.16205,-0.70065 -3.96875,-0.37798 -0.75446,0.30179 -2.31479,3.03493 -2.64583,3.77976 -1.305181,2.93666 -0.47164,8.46264 0,11.52828 1.71782,11.16584 4.69058,13.85154 15.49702,16.25297 1.0589,0.23532 7.01449,-0.73402 7.74852,0 0.0911,0.0911 -0.16238,0.94495 0.18898,0.94495 4.7078,0 13.99701,-6.05951 17.19792,-9.26042 1.80426,-1.80426 3.14506,-4.57139 4.53571,-6.4256 0.95061,-1.26748 0.5137,-3.97128 0.94494,-5.48065 0.4182,-1.46368 0.72435,-4.26288 -0.18898,-5.48065 -3.17142,-4.22856 -5.81512,-5.64064 -10.39435,-8.69346 -3.02263,-2.01509 -6.54473,-3.88841 -10.20535,-4.11048 -0.91136,-0.0553 -1.82366,0.60592 -2.64584,0.7087 z"
       sodipodi:nodetypes="ccscccccsscccssc" />
    <path
       style="opacity:1;fill:#ffffff;fill-opacity:1;stroke:#000000;stroke-width:0.12512418;stroke-miterlimit:4;stroke-dasharray:none;stroke-dashoffset:0;stroke-opacity:1"
       id="path877"
       sodipodi:type="arc"
       sodipodi:cx="202.0161"
       sodipodi:cy="153.78427"
       sodipodi:rx="143.87218"
       sodipodi:ry="54.430519"
       sodipodi:start="3.489571"
       sodipodi:end="4.8209492"
       sodipodi:open="true"
       d="M 66.767042,135.22357 A 143.87218,54.430519 0 0 1 217.60423,99.674178"
       transform="matrix(0.97745618,0.21113836,-0.2722603,0.96222364,0,0)" />
    <path
       style="fill:#e6e6e6;stroke:#000000;stroke-width:0.4;stroke-linecap:butt;stroke-linejoin:miter;stroke-opacity:1;stroke-miterlimit:4;stroke-dasharray:none"
       d="m 123.7872,118.59524 c -1.44236,0.40636 -2.94623,0.60088 -4.34673,1.13392 -2.05373,0.78167 -3.76241,2.24027 -5.58679,3.46519 -0.91219,0.61246 -1.867,1.17348 -2.89691,1.5562 -1.02992,0.38272 -2.14179,0.58269 -3.23356,0.45927 -0.66728,-0.0754 -1.31491,-0.26919 -1.97457,-0.39487 -0.65967,-0.12568 -1.35254,-0.18123 -1.99418,0.0169 -0.77091,0.23804 -1.3984,0.82769 -1.81781,1.51693 -0.41941,0.68925 -0.65064,1.47575 -0.82802,2.26283 -0.84967,3.7702 -0.55195,7.70314 0,11.52828 0.61274,4.24642 1.60277,8.604 4.21088,12.01066 1.30406,1.70333 3.00741,3.12843 4.99285,3.94076 1.98545,0.81234 4.25923,0.9831 6.29329,0.30155 1.3871,-0.46477 2.64426,-1.30762 4.07734,-1.60146 0.71654,-0.14693 1.478,-0.14765 2.16262,0.10988 0.3423,0.12877 0.66197,0.32152 0.9255,0.57511 0.26352,0.25359 0.46988,0.5687 0.58306,0.91647 0.0995,0.30573 0.12615,0.62963 0.18898,0.94495 0.20822,1.045 0.82676,1.99254 1.66446,2.65105 0.8377,0.65851 1.88427,1.03285 2.94662,1.11525 1.06235,0.0824 2.13841,-0.12038 3.12301,-0.52773 0.98461,-0.40734 1.87968,-1.01549 2.6645,-1.7362 1.56965,-1.44142 2.68461,-3.30449 3.67659,-5.19062 0.99197,-1.88612 1.88995,-3.83386 3.12274,-5.57217 1.52218,-2.14636 3.55753,-3.98284 4.53571,-6.4256 0.69201,-1.72812 0.79681,-3.62503 0.94494,-5.48065 0.14637,-1.83354 0.33807,-3.7184 -0.18898,-5.48065 -0.33255,-1.11191 -0.94325,-2.12961 -1.70265,-3.00725 -0.7594,-0.87763 -1.66558,-1.61967 -2.62797,-2.26833 -1.92476,-1.29731 -4.07165,-2.22651 -6.06373,-3.41788 -1.61034,-0.96307 -3.11966,-2.09752 -4.7893,-2.95366 -1.66964,-0.85615 -3.55966,-1.42979 -5.41605,-1.15682 -0.90419,0.13295 -1.76618,0.46087 -2.64584,0.7087 z"
       id="path825"
       inkscape:connector-curvature="0"
       inkscape:path-effect="#path-effect827"
       inkscape:original-d="m 123.7872,118.59524 c -1.63937,0.20492 -2.74081,0.59862 -4.34673,1.13392 -3.56201,1.18735 -7.67192,4.19351 -11.71726,5.48066 -1.15651,0.36798 -3.16205,-0.70065 -3.96875,-0.37798 -0.75446,0.30179 -2.31479,3.03493 -2.64583,3.77976 -1.305181,2.93666 -0.47164,8.46264 0,11.52828 1.71782,11.16584 4.69058,13.85154 15.49702,16.25297 1.0589,0.23532 7.01449,-0.73402 7.74852,0 0.0911,0.0911 -0.16238,0.94495 0.18898,0.94495 4.7078,0 13.99701,-6.05951 17.19792,-9.26042 1.80426,-1.80426 3.14506,-4.57139 4.53571,-6.4256 0.95061,-1.26748 0.5137,-3.97128 0.94494,-5.48065 0.4182,-1.46368 0.72435,-4.26288 -0.18898,-5.48065 -3.17142,-4.22856 -5.81512,-5.64064 -10.39435,-8.69346 -3.02263,-2.01509 -6.54473,-3.88841 -10.20535,-4.11048 -0.91136,-0.0553 -1.82366,0.60592 -2.64584,0.7087 z"
       sodipodi:nodetypes="ccscccccsscccssc"
       transform="translate(-97.018838,2.1381562)" />
    <path
       transform="rotate(27.124219,124.72989,81.520073)"
       style="fill:#e6e6e6;stroke:#000000;stroke-width:0.40000001;stroke-linecap:butt;stroke-linejoin:miter;stroke-miterlimit:4;stroke-dasharray:none;stroke-opacity:1"
       d="m 123.7872,118.59524 c -1.44236,0.40636 -2.94623,0.60088 -4.34673,1.13392 -2.05373,0.78167 -3.76241,2.24027 -5.58679,3.46519 -0.91219,0.61246 -1.867,1.17348 -2.89691,1.5562 -1.02992,0.38272 -2.14179,0.58269 -3.23356,0.45927 -0.66728,-0.0754 -1.31491,-0.26919 -1.97457,-0.39487 -0.65967,-0.12568 -1.35254,-0.18123 -1.99418,0.0169 -0.77091,0.23804 -1.3984,0.82769 -1.81781,1.51693 -0.41941,0.68925 -0.65064,1.47575 -0.82802,2.26283 -0.84967,3.7702 -0.55195,7.70314 0,11.52828 0.61274,4.24642 1.60277,8.604 4.21088,12.01066 1.30406,1.70333 3.00741,3.12843 4.99285,3.94076 1.98545,0.81234 4.25923,0.9831 6.29329,0.30155 1.3871,-0.46477 2.64426,-1.30762 4.07734,-1.60146 0.71654,-0.14693 1.478,-0.14765 2.16262,0.10988 0.3423,0.12877 0.66197,0.32152 0.9255,0.57511 0.26352,0.25359 0.46988,0.5687 0.58306,0.91647 0.0995,0.30573 0.12615,0.62963 0.18898,0.94495 0.20822,1.045 0.82676,1.99254 1.66446,2.65105 0.8377,0.65851 1.88427,1.03285 2.94662,1.11525 1.06235,0.0824 2.13841,-0.12038 3.12301,-0.52773 0.98461,-0.40734 1.87968,-1.01549 2.6645,-1.7362 1.56965,-1.44142 2.68461,-3.30449 3.67659,-5.19062 0.99197,-1.88612 1.88995,-3.83386 3.12274,-5.57217 1.52218,-2.14636 3.55753,-3.98284 4.53571,-6.4256 0.69201,-1.72812 0.79681,-3.62503 0.94494,-5.48065 0.14637,-1.83354 0.33807,-3.7184 -0.18898,-5.48065 -0.33255,-1.11191 -0.94325,-2.12961 -1.70265,-3.00725 -0.7594,-0.87763 -1.66558,-1.61967 -2.62797,-2.26833 -1.92476,-1.29731 -4.07165,-2.22651 -6.06373,-3.41788 -1.61034,-0.96307 -3.11966,-2.09752 -4.7893,-2.95366 -1.66964,-0.85615 -3.55966,-1.42979 -5.41605,-1.15682 -0.90419,0.13295 -1.76618,0.46087 -2.64584,0.7087 z"
       id="path825-2"
       inkscape:connector-curvature="0"
       inkscape:path-effect="#path-effect827-4"
       inkscape:original-d="m 123.7872,118.59524 c -1.63937,0.20492 -2.74081,0.59862 -4.34673,1.13392 -3.56201,1.18735 -7.67192,4.19351 -11.71726,5.48066 -1.15651,0.36798 -3.16205,-0.70065 -3.96875,-0.37798 -0.75446,0.30179 -2.31479,3.03493 -2.64583,3.77976 -1.305181,2.93666 -0.47164,8.46264 0,11.52828 1.71782,11.16584 4.69058,13.85154 15.49702,16.25297 1.0589,0.23532 7.01449,-0.73402 7.74852,0 0.0911,0.0911 -0.16238,0.94495 0.18898,0.94495 4.7078,0 13.99701,-6.05951 17.19792,-9.26042 1.80426,-1.80426 3.14506,-4.57139 4.53571,-6.4256 0.95061,-1.26748 0.5137,-3.97128 0.94494,-5.48065 0.4182,-1.46368 0.72435,-4.26288 -0.18898,-5.48065 -3.17142,-4.22856 -5.81512,-5.64064 -10.39435,-8.69346 -3.02263,-2.01509 -6.54473,-3.88841 -10.20535,-4.11048 -0.91136,-0.0553 -1.82366,0.60592 -2.64584,0.7087 z"
       sodipodi:nodetypes="ccscccccsscccssc" />
    <path
       transform="rotate(57.059683,143.60513,178.67718)"
       style="fill:#e6e6e6;stroke:#000000;stroke-width:0.40000001;stroke-linecap:butt;stroke-linejoin:miter;stroke-miterlimit:4;stroke-dasharray:none;stroke-opacity:1"
       d="m 123.7872,118.59524 c -1.44236,0.40636 -2.94623,0.60088 -4.34673,1.13392 -2.05373,0.78167 -3.76241,2.24027 -5.58679,3.46519 -0.91219,0.61246 -1.867,1.17348 -2.89691,1.5562 -1.02992,0.38272 -2.14179,0.58269 -3.23356,0.45927 -0.66728,-0.0754 -1.31491,-0.26919 -1.97457,-0.39487 -0.65967,-0.12568 -1.35254,-0.18123 -1.99418,0.0169 -0.77091,0.23804 -1.3984,0.82769 -1.81781,1.51693 -0.41941,0.68925 -0.65064,1.47575 -0.82802,2.26283 -0.84967,3.7702 -0.55195,7.70314 0,11.52828 0.61274,4.24642 1.60277,8.604 4.21088,12.01066 1.30406,1.70333 3.00741,3.12843 4.99285,3.94076 1.98545,0.81234 4.25923,0.9831 6.29329,0.30155 1.3871,-0.46477 2.64426,-1.30762 4.07734,-1.60146 0.71654,-0.14693 1.478,-0.14765 2.16262,0.10988 0.3423,0.12877 0.66197,0.32152 0.9255,0.57511 0.26352,0.25359 0.46988,0.5687 0.58306,0.91647 0.0995,0.30573 0.12615,0.62963 0.18898,0.94495 0.20822,1.045 0.82676,1.99254 1.66446,2.65105 0.8377,0.65851 1.88427,1.03285 2.94662,1.11525 1.06235,0.0824 2.13841,-0.12038 3.12301,-0.52773 0.98461,-0.40734 1.87968,-1.01549 2.6645,-1.7362 1.56965,-1.44142 2.68461,-3.30449 3.67659,-5.19062 0.99197,-1.88612 1.88995,-3.83386 3.12274,-5.57217 1.52218,-2.14636 3.55753,-3.98284 4.53571,-6.4256 0.69201,-1.72812 0.79681,-3.62503 0.94494,-5.48065 0.14637,-1.83354 0.33807,-3.7184 -0.18898,-5.48065 -0.33255,-1.11191 -0.94325,-2.12961 -1.70265,-3.00725 -0.7594,-0.87763 -1.66558,-1.61967 -2.62797,-2.26833 -1.92476,-1.29731 -4.07165,-2.22651 -6.06373,-3.41788 -1.61034,-0.96307 -3.11966,-2.09752 -4.7893,-2.95366 -1.66964,-0.85615 -3.55966,-1.42979 -5.41605,-1.15682 -0.90419,0.13295 -1.76618,0.46087 -2.64584,0.7087 z"
       id="path825-2-8"
       inkscape:connector-curvature="0"
       inkscape:path-effect="#path-effect827-4-9"
       inkscape:original-d="m 123.7872,118.59524 c -1.63937,0.20492 -2.74081,0.59862 -4.34673,1.13392 -3.56201,1.18735 -7.67192,4.19351 -11.71726,5.48066 -1.15651,0.36798 -3.16205,-0.70065 -3.96875,-0.37798 -0.75446,0.30179 -2.31479,3.03493 -2.64583,3.77976 -1.305181,2.93666 -0.47164,8.46264 0,11.52828 1.71782,11.16584 4.69058,13.85154 15.49702,16.25297 1.0589,0.23532 7.01449,-0.73402 7.74852,0 0.0911,0.0911 -0.16238,0.94495 0.18898,0.94495 4.7078,0 13.99701,-6.05951 17.19792,-9.26042 1.80426,-1.80426 3.14506,-4.57139 4.53571,-6.4256 0.95061,-1.26748 0.5137,-3.97128 0.94494,-5.48065 0.4182,-1.46368 0.72435,-4.26288 -0.18898,-5.48065 -3.17142,-4.22856 -5.81512,-5.64064 -10.39435,-8.69346 -3.02263,-2.01509 -6.54473,-3.88841 -10.20535,-4.11048 -0.91136,-0.0553 -1.82366,0.60592 -2.64584,0.7087 z"
       sodipodi:nodetypes="ccscccccsscccssc" />
    <g
       ns0:jacobian_sqrt="0.705556"
       ns0:alignment="middle center"
       ns0:scale="2.0"
       ns0:preamble="C:\\Users\\Tom\\AppData\\Roaming\\inkscape\\extensions\\textext\\default_packages.tex"
       ns0:text="$\\Omega_0$"
       ns0:pdfconverter="pstoedit"
       ns0:texconverter="pdflatex"
       ns0:version="0.10.2"
       word-spacing="normal"
       letter-spacing="normal"
       font-size-adjust="none"
       font-stretch="normal"
       font-weight="normal"
       font-variant="normal"
       font-style="normal"
       stroke-miterlimit="10.433"
       xml:space="preserve"
       transform="matrix(0.705556,0,0,-0.705556,-76.274426,623.18195)"
       id="content"
       style="font-style:normal;font-variant:normal;font-weight:normal;font-stretch:normal;letter-spacing:normal;word-spacing:normal;text-anchor:start;fill:none;fill-opacity:1;fill-rule:evenodd;stroke:#000000;stroke-linecap:butt;stroke-linejoin:miter;stroke-miterlimit:10.43299961;stroke-dasharray:none;stroke-dashoffset:0;stroke-opacity:1">
<path
   id="path965"
   d="m 155.46,658.84 h -0.25 c -0.05,-0.25 -0.09,-0.48 -0.18,-0.72 -0.05,-0.16 -0.08,-0.24 -0.65,-0.24 h -0.8 c 0.13,0.56 0.44,1.03 0.89,1.69 0.46,0.71 0.87,1.39 0.87,2.17 0,1.39 -1.34,2.5 -3.03,2.5 -1.71,0 -3.04,-1.13 -3.04,-2.5 0,-0.78 0.41,-1.46 0.88,-2.17 0.44,-0.66 0.76,-1.13 0.89,-1.69 h -0.8 c -0.58,0 -0.61,0.08 -0.66,0.23 -0.08,0.23 -0.13,0.49 -0.18,0.73 h -0.25 l 0.33,-1.61 h 1.59 c 0.22,0 0.25,0 0.25,0.21 0,0.7 -0.3,1.57 -0.53,2.21 -0.21,0.57 -0.49,1.36 -0.49,2.11 0,1.58 1.1,2.26 2,2.26 0.96,0 2.02,-0.72 2.02,-2.26 0,-0.75 -0.27,-1.5 -0.56,-2.32 -0.15,-0.42 -0.47,-1.31 -0.47,-2 0,-0.21 0.03,-0.21 0.26,-0.21 h 1.58 z"
   inkscape:connector-curvature="0"
   style="fill:#000000;stroke-width:0" />
<path
   id="path967"
   d="m 159.52,657.96 -0.01,0.14 v 0.14 0.13 l -0.01,0.12 -0.01,0.13 -0.02,0.12 -0.02,0.11 -0.02,0.11 -0.03,0.11 -0.02,0.11 -0.04,0.1 -0.04,0.1 -0.04,0.1 -0.05,0.09 -0.05,0.1 -0.03,0.04 -0.03,0.05 c -0.21,0.32 -0.65,0.6 -1.21,0.6 v -0.2 c 0.38,0 0.74,-0.23 0.87,-0.63 0.11,-0.37 0.12,-0.87 0.12,-1.48 0,-0.52 0,-1.03 -0.09,-1.47 -0.14,-0.63 -0.62,-0.78 -0.9,-0.78 v 0 c -0.32,0 -0.74,0.18 -0.88,0.75 -0.1,0.42 -0.1,0.98 -0.1,1.5 0,0.51 0,1.04 0.1,1.42 0.15,0.55 0.6,0.69 0.88,0.69 v 0.2 c -1.62,0 -1.62,-1.9 -1.62,-2.4 0,-0.5 0,-2.36 1.62,-2.36 1.63,0 1.63,1.86 1.63,2.36 z"
   inkscape:connector-curvature="0"
   style="fill:#000000;stroke-width:0" />
</g>    <g
       style="font-style:normal;font-variant:normal;font-weight:normal;font-stretch:normal;letter-spacing:normal;word-spacing:normal;text-anchor:start;fill:none;fill-opacity:1;fill-rule:evenodd;stroke:#000000;stroke-linecap:butt;stroke-linejoin:miter;stroke-miterlimit:10.43299961;stroke-dasharray:none;stroke-dashoffset:0;stroke-opacity:1"
       ns0:jacobian_sqrt="0.705556"
       ns0:alignment="middle center"
       ns0:scale="1.99999997165"
       ns0:preamble="C:\\Users\\Tom\\AppData\\Roaming\\inkscape\\extensions\\textext\\default_packages.tex"
       ns0:text="$\\Omega_{n}$"
       ns0:pdfconverter="pstoedit"
       ns0:texconverter="pdflatex"
       ns0:version="0.10.2"
       word-spacing="normal"
       letter-spacing="normal"
       font-size-adjust="none"
       font-stretch="normal"
       font-weight="normal"
       font-variant="normal"
       font-style="normal"
       stroke-miterlimit="10.433"
       xml:space="preserve"
       transform="matrix(0.705556,0,0,-0.705556,-12.139152,615.30023)"
       id="g1058">
<path
   id="path1054"
   style="fill:#000000;fill-opacity:1;stroke:#000000;stroke-width:0;stroke-opacity:1"
   d="m 155.46,658.84 h -0.25 c -0.05,-0.25 -0.09,-0.48 -0.18,-0.72 -0.05,-0.16 -0.08,-0.24 -0.65,-0.24 h -0.8 c 0.13,0.56 0.44,1.03 0.89,1.69 0.46,0.71 0.87,1.39 0.87,2.17 0,1.39 -1.34,2.5 -3.03,2.5 -1.71,0 -3.04,-1.13 -3.04,-2.5 0,-0.78 0.41,-1.46 0.88,-2.17 0.44,-0.66 0.76,-1.13 0.89,-1.69 h -0.8 c -0.58,0 -0.61,0.08 -0.66,0.23 -0.08,0.23 -0.13,0.49 -0.18,0.73 h -0.25 l 0.33,-1.61 h 1.59 c 0.22,0 0.25,0 0.25,0.21 0,0.7 -0.3,1.57 -0.53,2.21 -0.21,0.57 -0.49,1.36 -0.49,2.11 0,1.58 1.1,2.26 2,2.26 0.96,0 2.02,-0.72 2.02,-2.26 0,-0.75 -0.27,-1.5 -0.56,-2.32 -0.15,-0.42 -0.47,-1.31 -0.47,-2 0,-0.21 0.03,-0.21 0.26,-0.21 h 1.58 z"
   inkscape:connector-curvature="0" />
<path
   id="path1056"
   style="fill:#000000;fill-opacity:1;stroke:#000000;stroke-width:0;stroke-opacity:1"
   d="m 156.76,656.18 v -0.01 -0.01 l -0.01,-0.01 v -0.01 -0.01 l -0.01,-0.01 v -0.01 -0.01 l -0.01,-0.02 v -0.03 l -0.01,-0.02 v -0.02 L 156.71,656 v -0.01 -0.01 -0.01 l -0.01,-0.01 v -0.01 -0.01 -0.01 0 -0.01 l -0.01,-0.01 v 0 -0.01 0 0 0 0 -0.01 c 0,-0.15 0.13,-0.22 0.24,-0.22 0.12,0 0.24,0.09 0.27,0.15 0.04,0.07 0.09,0.29 0.13,0.44 0.03,0.13 0.11,0.45 0.15,0.62 0.04,0.15 0.09,0.31 0.12,0.47 0.08,0.28 0.09,0.34 0.29,0.62 0.2,0.28 0.53,0.64 1.05,0.64 0.41,0 0.41,-0.35 0.41,-0.48 0,-0.42 -0.3,-1.19 -0.41,-1.48 -0.07,-0.2 -0.1,-0.26 -0.1,-0.38 0,-0.37 0.31,-0.6 0.66,-0.6 0.7,0 1.01,0.96 1.01,1.06 0,0.1 -0.09,0.1 -0.11,0.1 -0.1,0 -0.11,-0.05 -0.14,-0.12 -0.16,-0.56 -0.46,-0.84 -0.74,-0.84 -0.14,0 -0.17,0.09 -0.17,0.24 0,0.16 0.03,0.25 0.16,0.56 0.08,0.22 0.37,0.96 0.37,1.35 0,0.67 -0.54,0.79 -0.91,0.79 -0.58,0 -0.97,-0.36 -1.18,-0.64 -0.05,0.49 -0.46,0.64 -0.75,0.64 -0.3,0 -0.46,-0.22 -0.55,-0.38 -0.15,-0.26 -0.25,-0.65 -0.25,-0.69 0,-0.09 0.1,-0.09 0.12,-0.09 0.09,0 0.1,0.02 0.15,0.21 0.1,0.41 0.24,0.75 0.51,0.75 0.18,0 0.23,-0.15 0.23,-0.34 0,-0.13 -0.06,-0.39 -0.11,-0.57 -0.05,-0.19 -0.12,-0.48 -0.15,-0.63 z"
   inkscape:connector-curvature="0" />
</g>    <g
       style="font-style:normal;font-variant:normal;font-weight:normal;font-stretch:normal;letter-spacing:normal;word-spacing:normal;text-anchor:start;fill:none;fill-opacity:1;fill-rule:evenodd;stroke:#000000;stroke-linecap:butt;stroke-linejoin:miter;stroke-miterlimit:10.43299961;stroke-dasharray:none;stroke-dashoffset:0;stroke-opacity:1"
       ns0:jacobian_sqrt="0.705556"
       ns0:alignment="middle center"
       ns0:scale="1.99999997165"
       ns0:preamble="C:\\Users\\Tom\\AppData\\Roaming\\inkscape\\extensions\\textext\\default_packages.tex"
       ns0:text="$\\Omega_{n+1}$"
       ns0:pdfconverter="pstoedit"
       ns0:texconverter="pdflatex"
       ns0:version="0.10.2"
       word-spacing="normal"
       letter-spacing="normal"
       font-size-adjust="none"
       font-stretch="normal"
       font-weight="normal"
       font-variant="normal"
       font-style="normal"
       stroke-miterlimit="10.433"
       xml:space="preserve"
       transform="matrix(0.705556,0,0,-0.705556,51.247453,621.95268)"
       id="g1101">
<path
   id="path1093"
   style="fill:#000000;fill-opacity:1;stroke:#000000;stroke-width:0;stroke-opacity:1"
   d="m 155.46,658.84 h -0.25 c -0.05,-0.25 -0.09,-0.48 -0.18,-0.72 -0.05,-0.16 -0.08,-0.24 -0.65,-0.24 h -0.8 c 0.13,0.56 0.44,1.03 0.89,1.69 0.46,0.71 0.87,1.39 0.87,2.17 0,1.39 -1.34,2.5 -3.03,2.5 -1.71,0 -3.04,-1.13 -3.04,-2.5 0,-0.78 0.41,-1.46 0.88,-2.17 0.44,-0.66 0.76,-1.13 0.89,-1.69 h -0.8 c -0.58,0 -0.61,0.08 -0.66,0.23 -0.08,0.23 -0.13,0.49 -0.18,0.73 h -0.25 l 0.33,-1.61 h 1.59 c 0.22,0 0.25,0 0.25,0.21 0,0.7 -0.3,1.57 -0.53,2.21 -0.21,0.57 -0.49,1.36 -0.49,2.11 0,1.58 1.1,2.26 2,2.26 0.96,0 2.02,-0.72 2.02,-2.26 0,-0.75 -0.27,-1.5 -0.56,-2.32 -0.15,-0.42 -0.47,-1.31 -0.47,-2 0,-0.21 0.03,-0.21 0.26,-0.21 h 1.58 z"
   inkscape:connector-curvature="0" />
<path
   id="path1095"
   style="fill:#000000;fill-opacity:1;stroke:#000000;stroke-width:0;stroke-opacity:1"
   d="m 156.76,656.18 v -0.01 -0.01 l -0.01,-0.01 v -0.01 -0.01 l -0.01,-0.01 v -0.01 -0.01 l -0.01,-0.02 v -0.03 l -0.01,-0.02 v -0.02 L 156.71,656 v -0.01 -0.01 -0.01 l -0.01,-0.01 v -0.01 -0.01 -0.01 0 -0.01 l -0.01,-0.01 v 0 -0.01 0 0 0 0 -0.01 c 0,-0.15 0.13,-0.22 0.24,-0.22 0.12,0 0.24,0.09 0.27,0.15 0.04,0.07 0.09,0.29 0.13,0.44 0.03,0.13 0.11,0.45 0.15,0.62 0.04,0.15 0.09,0.31 0.12,0.47 0.08,0.28 0.09,0.34 0.29,0.62 0.2,0.28 0.53,0.64 1.05,0.64 0.41,0 0.41,-0.35 0.41,-0.48 0,-0.42 -0.3,-1.19 -0.41,-1.48 -0.07,-0.2 -0.1,-0.26 -0.1,-0.38 0,-0.37 0.31,-0.6 0.66,-0.6 0.7,0 1.01,0.96 1.01,1.06 0,0.1 -0.09,0.1 -0.11,0.1 -0.1,0 -0.11,-0.05 -0.14,-0.12 -0.16,-0.56 -0.46,-0.84 -0.74,-0.84 -0.14,0 -0.17,0.09 -0.17,0.24 0,0.16 0.03,0.25 0.16,0.56 0.08,0.22 0.37,0.96 0.37,1.35 0,0.67 -0.54,0.79 -0.91,0.79 -0.58,0 -0.97,-0.36 -1.18,-0.64 -0.05,0.49 -0.46,0.64 -0.75,0.64 -0.3,0 -0.46,-0.22 -0.55,-0.38 -0.15,-0.26 -0.25,-0.65 -0.25,-0.69 0,-0.09 0.1,-0.09 0.12,-0.09 0.09,0 0.1,0.02 0.15,0.21 0.1,0.41 0.24,0.75 0.51,0.75 0.18,0 0.23,-0.15 0.23,-0.34 0,-0.13 -0.06,-0.39 -0.11,-0.57 -0.05,-0.19 -0.12,-0.48 -0.15,-0.63 z"
   inkscape:connector-curvature="0" />
<path
   id="path1097"
   style="fill:#000000;fill-opacity:1;stroke:#000000;stroke-width:0;stroke-opacity:1"
   d="m 164.07,657.31 h 2.14 c 0.09,0 0.26,0 0.26,0.17 0,0.17 -0.16,0.17 -0.26,0.17 h -2.14 v 2.14 c 0,0.09 0,0.25 -0.17,0.25 -0.17,0 -0.17,-0.15 -0.17,-0.25 v -2.14 h -2.15 c -0.09,0 -0.26,0 -0.26,-0.16 0,-0.18 0.16,-0.18 0.26,-0.18 h 2.15 v -2.13 c 0,-0.09 0,-0.26 0.16,-0.26 0.18,0 0.18,0.16 0.18,0.26 z"
   inkscape:connector-curvature="0" />
<path
   id="path1099"
   style="fill:#000000;fill-opacity:1;stroke:#000000;stroke-width:0;stroke-opacity:1"
   d="m 169.29,660.16 v 0.01 0.01 0.01 0.01 0 0.01 0.01 0.01 0 0.01 0.01 0 0.01 0 0.01 h -0.01 v 0.01 0 0.01 0.01 0.01 h -0.01 v 0.01 l -0.01,0.01 v 0 l -0.01,0.01 v 0 h -0.01 l -0.01,0.01 h -0.01 v 0 h -0.01 -0.01 v 0 h -0.01 l -0.01,0.01 v 0 h -0.01 v 0 h -0.01 -0.01 v 0 h -0.01 -0.01 -0.01 v 0 h -0.01 -0.01 -0.01 -0.01 c -0.45,-0.44 -1.08,-0.45 -1.37,-0.45 v -0.25 c 0.17,0 0.63,0 1.01,0.2 v -3.55 c 0,-0.23 0,-0.32 -0.7,-0.32 h -0.26 v -0.25 c 0.12,0.01 0.98,0.03 1.24,0.03 0.22,0 1.1,-0.02 1.26,-0.03 v 0.25 h -0.27 c -0.7,0 -0.7,0.09 -0.7,0.32 z"
   inkscape:connector-curvature="0" />
</g>    <g
       style="font-style:normal;font-variant:normal;font-weight:normal;font-stretch:normal;letter-spacing:normal;word-spacing:normal;text-anchor:start;fill:none;fill-opacity:1;fill-rule:evenodd;stroke:#000000;stroke-linecap:butt;stroke-linejoin:miter;stroke-miterlimit:10.43299961;stroke-dasharray:none;stroke-dashoffset:0;stroke-opacity:1"
       ns0:jacobian_sqrt="0.705556"
       ns0:alignment="middle center"
       ns0:scale="1.99999997165"
       ns0:preamble="C:\\Users\\Tom\\AppData\\Roaming\\inkscape\\extensions\\textext\\default_packages.tex"
       ns0:text="$\\Omega_{n+\\frac{1}{2}}$"
       ns0:pdfconverter="pstoedit"
       ns0:texconverter="pdflatex"
       ns0:version="0.10.2"
       word-spacing="normal"
       letter-spacing="normal"
       font-size-adjust="none"
       font-stretch="normal"
       font-weight="normal"
       font-variant="normal"
       font-style="normal"
       stroke-miterlimit="10.433"
       xml:space="preserve"
       transform="matrix(0.705556,0,0,-0.705556,23.736333,573.16696)"
       id="g1152">
<path
   id="path1140"
   style="fill:#000000;fill-opacity:1;stroke:#000000;stroke-width:0;stroke-opacity:1"
   d="m 155.46,658.84 h -0.25 c -0.05,-0.25 -0.09,-0.48 -0.18,-0.72 -0.05,-0.16 -0.08,-0.24 -0.65,-0.24 h -0.8 c 0.13,0.56 0.44,1.03 0.89,1.69 0.46,0.71 0.87,1.39 0.87,2.17 0,1.39 -1.34,2.5 -3.03,2.5 -1.71,0 -3.04,-1.13 -3.04,-2.5 0,-0.78 0.41,-1.46 0.88,-2.17 0.44,-0.66 0.76,-1.13 0.89,-1.69 h -0.8 c -0.58,0 -0.61,0.08 -0.66,0.23 -0.08,0.23 -0.13,0.49 -0.18,0.73 h -0.25 l 0.33,-1.61 h 1.59 c 0.22,0 0.25,0 0.25,0.21 0,0.7 -0.3,1.57 -0.53,2.21 -0.21,0.57 -0.49,1.36 -0.49,2.11 0,1.58 1.1,2.26 2,2.26 0.96,0 2.02,-0.72 2.02,-2.26 0,-0.75 -0.27,-1.5 -0.56,-2.32 -0.15,-0.42 -0.47,-1.31 -0.47,-2 0,-0.21 0.03,-0.21 0.26,-0.21 h 1.58 z"
   inkscape:connector-curvature="0" />
<path
   id="path1142"
   style="fill:#000000;fill-opacity:1;stroke:#000000;stroke-width:0;stroke-opacity:1"
   d="m 156.76,655.22 v -0.01 -0.01 l -0.01,-0.01 v -0.01 -0.01 l -0.01,-0.01 v -0.01 -0.01 l -0.01,-0.02 v -0.03 l -0.01,-0.02 v -0.02 l -0.01,-0.01 v -0.01 -0.01 -0.01 L 156.7,655 v -0.01 -0.01 -0.01 0 -0.01 l -0.01,-0.01 v 0 -0.01 0 0 -0.01 0 0 c 0,-0.15 0.13,-0.22 0.24,-0.22 0.12,0 0.24,0.09 0.27,0.15 0.04,0.06 0.09,0.29 0.13,0.43 0.03,0.14 0.11,0.46 0.15,0.63 0.04,0.15 0.09,0.3 0.12,0.47 0.08,0.28 0.09,0.34 0.29,0.62 0.2,0.28 0.53,0.64 1.05,0.64 0.41,0 0.41,-0.35 0.41,-0.49 0,-0.41 -0.3,-1.19 -0.41,-1.48 -0.07,-0.19 -0.1,-0.25 -0.1,-0.37 0,-0.37 0.31,-0.6 0.66,-0.6 0.7,0 1.01,0.96 1.01,1.06 0,0.09 -0.09,0.09 -0.11,0.09 -0.1,0 -0.11,-0.04 -0.14,-0.11 -0.16,-0.56 -0.46,-0.85 -0.74,-0.85 -0.14,0 -0.17,0.1 -0.17,0.25 0,0.16 0.03,0.25 0.16,0.56 0.08,0.22 0.37,0.95 0.37,1.34 0,0.68 -0.54,0.8 -0.91,0.8 -0.58,0 -0.97,-0.36 -1.18,-0.64 -0.05,0.48 -0.46,0.64 -0.75,0.64 -0.3,0 -0.46,-0.22 -0.55,-0.38 -0.15,-0.26 -0.25,-0.65 -0.25,-0.69 0,-0.09 0.1,-0.09 0.12,-0.09 0.09,0 0.1,0.02 0.15,0.21 0.1,0.41 0.24,0.75 0.51,0.75 0.18,0 0.23,-0.15 0.23,-0.34 0,-0.13 -0.06,-0.39 -0.11,-0.58 -0.05,-0.19 -0.12,-0.47 -0.15,-0.62 z"
   inkscape:connector-curvature="0" />
<path
   id="path1144"
   style="fill:#000000;fill-opacity:1;stroke:#000000;stroke-width:0;stroke-opacity:1"
   d="m 164.07,656.35 h 2.14 c 0.09,0 0.26,0 0.26,0.17 0,0.17 -0.16,0.17 -0.26,0.17 h -2.14 v 2.14 c 0,0.09 0,0.25 -0.17,0.25 -0.17,0 -0.17,-0.16 -0.17,-0.25 v -2.14 h -2.15 c -0.09,0 -0.26,0 -0.26,-0.17 0,-0.17 0.16,-0.17 0.26,-0.17 h 2.15 v -2.13 c 0,-0.09 0,-0.26 0.16,-0.26 0.18,0 0.18,0.16 0.18,0.26 z"
   inkscape:connector-curvature="0" />
<path
   id="path1146"
   style="fill:#000000;fill-opacity:1;stroke:#000000;stroke-width:0;stroke-opacity:1"
   d="m 170.12,660.62 v 0 0.01 0.01 0 0.01 0 0.01 0.01 0 0.01 0 0.01 0 0 0.01 0 0.01 h -0.01 v 0 0.01 0 0.01 h -0.01 v 0.01 0 l -0.01,0.01 v 0 h -0.01 v 0.01 h -0.01 -0.01 v 0 h -0.01 -0.01 v 0 h -0.01 v 0 h -0.01 v 0 h -0.01 v 0 H 170 v 0 h -0.01 -0.01 v 0 h -0.01 -0.01 v 0.01 h -0.01 -0.01 c -0.35,-0.32 -0.9,-0.32 -1,-0.32 h -0.09 v -0.22 h 0.09 c 0.11,0 0.44,0.01 0.72,0.14 v -2.49 c 0,-0.15 0,-0.2 -0.52,-0.2 h -0.25 v -0.22 c 0.27,0.02 0.71,0.02 1,0.02 0.29,0 0.73,0 1.01,-0.02 v 0.22 h -0.25 c -0.53,0 -0.53,0.05 -0.53,0.2 z"
   inkscape:connector-curvature="0" />
<line
   id="line1148"
   style="fill-opacity:1;stroke:#000000;stroke-width:0.33899999;stroke-opacity:1"
   y2="656.52002"
   x2="171.53"
   y1="656.52002"
   x1="168.14" />
<path
   id="path1150"
   style="fill:#000000;fill-opacity:1;stroke:#000000;stroke-width:0;stroke-opacity:1"
   d="m 171.07,653.34 h -0.21 c -0.01,-0.1 -0.06,-0.41 -0.14,-0.45 -0.04,-0.03 -0.46,-0.03 -0.54,-0.03 h -0.97 c 0.33,0.24 0.7,0.52 1,0.72 0.44,0.3 0.86,0.59 0.86,1.12 0,0.63 -0.6,0.99 -1.31,0.99 -0.67,0 -1.16,-0.39 -1.16,-0.88 0,-0.26 0.22,-0.3 0.28,-0.3 0.14,0 0.3,0.09 0.3,0.29 0,0.18 -0.13,0.28 -0.29,0.3 0.14,0.22 0.43,0.37 0.76,0.37 0.49,0 0.89,-0.29 0.89,-0.78 0,-0.41 -0.29,-0.73 -0.67,-1.05 l -1.21,-1.03 c -0.05,-0.05 -0.06,-0.05 -0.06,-0.08 v -0.15 h 2.31 z"
   inkscape:connector-curvature="0" />
</g>    <path
       style="fill:none;stroke:#000000;stroke-width:0.26958707px;stroke-linecap:butt;stroke-linejoin:miter;stroke-opacity:1;marker-end:url(#marker1754)"
       d="m 36.287154,121.61675 c 0,0 8.871369,-7.57933 13.83927,-10.58927 5.333974,-3.23174 11.089358,-5.7935 16.95693,-7.90703 6.647519,-2.39447 13.570395,-4.024671 20.510636,-5.349824 8.011394,-1.529677 24.28594,-2.982275 24.28594,-2.982275"
       id="path1744"
       inkscape:connector-curvature="0"
       sodipodi:nodetypes="caaac" />
    <path
       style="fill:none;stroke:#000000;stroke-width:0.26458332px;stroke-linecap:butt;stroke-linejoin:miter;stroke-opacity:1;marker-end:url(#marker1804)"
       d="m 49.496048,142.56642 c 2.742895,1.20499 5.696957,1.9275 8.686383,2.12452 2.909545,0.19176 5.833715,-0.111 8.702087,-0.63508 3.222546,-0.58879 6.393903,-1.45748 9.466672,-2.59307"
       id="path1798"
       inkscape:connector-curvature="0"
       inkscape:path-effect="#path-effect1800"
       inkscape:original-d="m 49.496048,142.56642 c 0,0 5.715965,1.87588 8.686383,2.12452 2.898274,0.2426 5.835654,-0.14273 8.702087,-0.63508 3.224575,-0.55387 9.466672,-2.59307 9.466672,-2.59307"
       sodipodi:nodetypes="caac" />
    <path
       style="fill:none;stroke:#000000;stroke-width:0.26458332px;stroke-linecap:butt;stroke-linejoin:miter;stroke-opacity:1;marker-end:url(#marker1966)"
       d="m 42.562672,154.39499 c 0,0 19.230264,7.38395 29.335037,8.91156 13.901904,2.10165 28.307461,2.51073 42.179041,0.21747 12.80406,-2.11678 36.7969,-12.72046 36.7969,-12.72046"
       id="path1962"
       inkscape:connector-curvature="0"
       sodipodi:nodetypes="caac" />
    <g
       style="font-style:normal;font-variant:normal;font-weight:normal;font-stretch:normal;letter-spacing:normal;word-spacing:normal;text-anchor:start;fill:none;fill-opacity:1;fill-rule:evenodd;stroke:#000000;stroke-linecap:butt;stroke-linejoin:miter;stroke-miterlimit:10.43299961;stroke-dasharray:none;stroke-dashoffset:0;stroke-opacity:1"
       ns0:jacobian_sqrt="0.705556"
       inkscapeversion="0.92.4"
       ns0:alignment="middle center"
       ns0:scale="1.99999997165"
       ns0:preamble="C:\\Users\\Tom\\AppData\\Roaming\\inkscape\\extensions\\textext\\default_packages.tex"
       ns0:text="$\\boldsymbol{F}_{n+\\frac{1}{2}}$"
       ns0:pdfconverter="pstoedit"
       ns0:texconverter="pdflatex"
       ns0:version="0.10.2"
       word-spacing="normal"
       letter-spacing="normal"
       font-size-adjust="none"
       font-stretch="normal"
       font-weight="normal"
       font-variant="normal"
       font-style="normal"
       stroke-miterlimit="10.433"
       xml:space="preserve"
       transform="matrix(0.705556,0,0,-0.705556,-42.873014,558.76236)"
       id="g2127">
<path
   id="path2115"
   style="fill:#000000;fill-opacity:1;stroke:#000000;stroke-width:0;stroke-opacity:1"
   d="m 152.36,660.38 h 0.65 c 0.6,0 0.77,-0.1 0.77,-0.42 0,-0.11 -0.03,-0.3 -0.06,-0.42 -0.02,-0.07 -0.03,-0.12 -0.03,-0.14 0,-0.15 0.13,-0.18 0.23,-0.18 0.19,0 0.2,0.06 0.25,0.24 l 0.56,2.21 c 0.03,0.13 0.03,0.15 0.03,0.16 0,0.18 -0.19,0.18 -0.23,0.18 -0.19,0 -0.21,-0.07 -0.26,-0.25 -0.2,-0.76 -0.51,-0.91 -1.23,-0.91 h -0.56 l 0.66,2.65 c 0.13,0.02 0.24,0.02 0.34,0.02 h 1.18 c 1.14,0 1.49,-0.29 1.49,-1.16 0,-0.24 -0.04,-0.54 -0.04,-0.58 0,-0.18 0.19,-0.18 0.24,-0.18 0.21,0 0.22,0.1 0.24,0.27 l 0.18,1.78 0.01,0.16 c 0,0.18 -0.17,0.18 -0.33,0.18 h -5.36 c -0.21,0 -0.22,-0.01 -0.27,-0.05 -0.07,-0.05 -0.09,-0.23 -0.09,-0.24 0,-0.18 0.14,-0.18 0.4,-0.18 0.22,0 0.4,-0.01 0.61,-0.02 l -1.4,-5.6 c -0.04,-0.16 -0.05,-0.17 -0.23,-0.19 -0.17,-0.01 -0.37,-0.01 -0.53,-0.01 -0.26,0 -0.28,0 -0.32,-0.02 -0.12,-0.07 -0.12,-0.23 -0.12,-0.27 0,-0.01 0,-0.18 0.22,-0.18 0.25,0 0.51,0.03 0.76,0.03 0.27,0 0.54,0.01 0.81,0.01 0.3,0 0.59,-0.01 0.89,-0.01 0.29,0 0.58,-0.03 0.86,-0.03 0.12,0 0.3,0 0.3,0.29 0,0.18 -0.17,0.18 -0.33,0.18 h -0.33 c -0.38,0 -0.53,0.02 -0.63,0.04 z"
   inkscape:connector-curvature="0" />
<path
   id="path2117"
   style="fill:#000000;fill-opacity:1;stroke:#000000;stroke-width:0;stroke-opacity:1"
   d="m 158.02,655.22 v -0.01 l -0.01,-0.01 v -0.01 -0.01 -0.01 L 158,655.16 v -0.01 -0.01 l -0.01,-0.02 v -0.03 l -0.01,-0.02 -0.01,-0.02 v -0.01 -0.01 -0.01 l -0.01,-0.01 v -0.01 -0.01 -0.01 -0.01 0 l -0.01,-0.01 v -0.01 0 -0.01 0 0 -0.01 0 0 c 0,-0.15 0.13,-0.22 0.24,-0.22 0.12,0 0.24,0.09 0.27,0.15 0.03,0.06 0.09,0.29 0.13,0.43 0.03,0.14 0.11,0.46 0.15,0.63 0.04,0.15 0.08,0.3 0.12,0.47 0.08,0.28 0.09,0.34 0.29,0.62 0.2,0.28 0.53,0.64 1.05,0.64 0.41,0 0.41,-0.35 0.41,-0.49 0,-0.41 -0.3,-1.19 -0.41,-1.48 -0.07,-0.19 -0.1,-0.25 -0.1,-0.37 0,-0.37 0.3,-0.6 0.66,-0.6 0.7,0 1.01,0.96 1.01,1.06 0,0.09 -0.09,0.09 -0.11,0.09 -0.1,0 -0.11,-0.04 -0.14,-0.11 -0.16,-0.56 -0.46,-0.85 -0.74,-0.85 -0.15,0 -0.17,0.1 -0.17,0.25 0,0.16 0.03,0.25 0.16,0.56 0.08,0.22 0.37,0.95 0.37,1.34 0,0.68 -0.54,0.8 -0.91,0.8 -0.58,0 -0.97,-0.36 -1.18,-0.64 -0.05,0.48 -0.46,0.64 -0.75,0.64 -0.3,0 -0.46,-0.22 -0.55,-0.38 -0.16,-0.26 -0.25,-0.65 -0.25,-0.69 0,-0.09 0.09,-0.09 0.12,-0.09 0.09,0 0.1,0.02 0.15,0.21 0.1,0.41 0.24,0.75 0.51,0.75 0.18,0 0.23,-0.15 0.23,-0.34 0,-0.13 -0.06,-0.39 -0.11,-0.58 -0.05,-0.19 -0.12,-0.47 -0.16,-0.62 z"
   inkscape:connector-curvature="0" />
<path
   id="path2119"
   style="fill:#000000;fill-opacity:1;stroke:#000000;stroke-width:0;stroke-opacity:1"
   d="m 165.33,656.35 h 2.14 c 0.09,0 0.26,0 0.26,0.17 0,0.17 -0.16,0.17 -0.26,0.17 h -2.14 v 2.14 c 0,0.09 0,0.25 -0.17,0.25 -0.17,0 -0.17,-0.16 -0.17,-0.25 v -2.14 h -2.15 c -0.09,0 -0.26,0 -0.26,-0.17 0,-0.17 0.16,-0.17 0.26,-0.17 h 2.15 v -2.13 c 0,-0.09 0,-0.26 0.16,-0.26 0.18,0 0.18,0.16 0.18,0.26 z"
   inkscape:connector-curvature="0" />
<path
   id="path2121"
   style="fill:#000000;fill-opacity:1;stroke:#000000;stroke-width:0;stroke-opacity:1"
   d="m 171.38,660.62 v 0 0.01 0.01 0 0.01 0 0.01 0.01 0 0.01 0 0.01 0 0 0.01 0 l -0.01,0.01 v 0 0 0.01 0 0.01 h -0.01 v 0.01 0 l -0.01,0.01 v 0 h -0.01 v 0.01 h -0.01 -0.01 v 0 h -0.01 -0.01 v 0 h -0.01 v 0 h -0.01 v 0 h -0.01 v 0 h -0.01 v 0 h -0.01 -0.01 v 0 h -0.01 -0.01 v 0.01 h -0.01 -0.01 c -0.35,-0.32 -0.9,-0.32 -1,-0.32 h -0.09 v -0.22 h 0.09 c 0.11,0 0.43,0.01 0.72,0.14 v -2.49 c 0,-0.15 0,-0.2 -0.52,-0.2 h -0.25 v -0.22 c 0.27,0.02 0.71,0.02 1,0.02 0.29,0 0.73,0 1,-0.02 v 0.22 h -0.24 c -0.53,0 -0.53,0.05 -0.53,0.2 z"
   inkscape:connector-curvature="0" />
<line
   id="line2123"
   style="fill-opacity:1;stroke:#000000;stroke-width:0.33899999;stroke-opacity:1"
   y2="656.52002"
   x2="172.78999"
   y1="656.52002"
   x1="169.39999" />
<path
   id="path2125"
   style="fill:#000000;fill-opacity:1;stroke:#000000;stroke-width:0;stroke-opacity:1"
   d="m 172.33,653.34 h -0.21 c -0.02,-0.1 -0.07,-0.41 -0.14,-0.45 -0.04,-0.03 -0.46,-0.03 -0.54,-0.03 h -0.97 c 0.33,0.24 0.7,0.52 0.99,0.72 0.45,0.3 0.87,0.59 0.87,1.12 0,0.63 -0.6,0.99 -1.31,0.99 -0.67,0 -1.17,-0.39 -1.17,-0.88 0,-0.26 0.22,-0.3 0.29,-0.3 0.14,0 0.3,0.09 0.3,0.29 0,0.18 -0.13,0.28 -0.29,0.3 0.14,0.22 0.43,0.37 0.76,0.37 0.49,0 0.89,-0.29 0.89,-0.78 0,-0.41 -0.29,-0.73 -0.67,-1.05 l -1.22,-1.03 c -0.04,-0.05 -0.05,-0.05 -0.06,-0.08 v -0.15 h 2.31 z"
   inkscape:connector-curvature="0" />
</g>    <g
       style="font-style:normal;font-variant:normal;font-weight:normal;font-stretch:normal;letter-spacing:normal;word-spacing:normal;text-anchor:start;fill:none;fill-opacity:1;fill-rule:evenodd;stroke:#000000;stroke-linecap:butt;stroke-linejoin:miter;stroke-miterlimit:10.43299961;stroke-dasharray:none;stroke-dashoffset:0;stroke-opacity:1"
       ns0:jacobian_sqrt="0.705556"
       inkscapeversion="0.92.4"
       ns0:alignment="middle center"
       ns0:scale="1.9999999433"
       ns0:preamble="C:\\Users\\Tom\\AppData\\Roaming\\inkscape\\extensions\\textext\\default_packages.tex"
       ns0:text="$\\boldsymbol{F}_{n}$"
       ns0:pdfconverter="pstoedit"
       ns0:texconverter="pdflatex"
       ns0:version="0.10.2"
       word-spacing="normal"
       letter-spacing="normal"
       font-size-adjust="none"
       font-stretch="normal"
       font-weight="normal"
       font-variant="normal"
       font-style="normal"
       stroke-miterlimit="10.433"
       xml:space="preserve"
       transform="matrix(0.705556,0,0,-0.705556,-47.809314,606.46161)"
       id="g2254">
<path
   id="path2250"
   style="fill:#000000;fill-opacity:1;stroke:#000000;stroke-width:0;stroke-opacity:1"
   d="m 152.36,660.38 h 0.65 c 0.6,0 0.77,-0.1 0.77,-0.42 0,-0.11 -0.03,-0.3 -0.06,-0.42 -0.02,-0.07 -0.03,-0.12 -0.03,-0.14 0,-0.15 0.13,-0.18 0.23,-0.18 0.19,0 0.2,0.06 0.25,0.24 l 0.56,2.21 c 0.03,0.13 0.03,0.15 0.03,0.16 0,0.18 -0.19,0.18 -0.23,0.18 -0.19,0 -0.21,-0.07 -0.26,-0.25 -0.2,-0.76 -0.51,-0.91 -1.23,-0.91 h -0.56 l 0.66,2.65 c 0.13,0.02 0.24,0.02 0.34,0.02 h 1.18 c 1.14,0 1.49,-0.29 1.49,-1.16 0,-0.24 -0.04,-0.54 -0.04,-0.58 0,-0.18 0.19,-0.18 0.24,-0.18 0.21,0 0.22,0.1 0.24,0.27 l 0.18,1.78 0.01,0.16 c 0,0.18 -0.17,0.18 -0.33,0.18 h -5.36 c -0.21,0 -0.22,-0.01 -0.27,-0.05 -0.07,-0.05 -0.09,-0.23 -0.09,-0.24 0,-0.18 0.14,-0.18 0.4,-0.18 0.22,0 0.4,-0.01 0.61,-0.02 l -1.4,-5.6 c -0.04,-0.16 -0.05,-0.17 -0.23,-0.19 -0.17,-0.01 -0.37,-0.01 -0.53,-0.01 -0.26,0 -0.28,0 -0.32,-0.02 -0.12,-0.07 -0.12,-0.23 -0.12,-0.27 0,-0.01 0,-0.18 0.22,-0.18 0.25,0 0.51,0.03 0.76,0.03 0.27,0 0.54,0.01 0.81,0.01 0.3,0 0.59,-0.01 0.89,-0.01 0.29,0 0.58,-0.03 0.86,-0.03 0.12,0 0.3,0 0.3,0.29 0,0.18 -0.17,0.18 -0.33,0.18 h -0.33 c -0.38,0 -0.53,0.02 -0.63,0.04 z"
   inkscape:connector-curvature="0" />
<path
   id="path2252"
   style="fill:#000000;fill-opacity:1;stroke:#000000;stroke-width:0;stroke-opacity:1"
   d="m 158.02,656.18 v -0.01 l -0.01,-0.01 v -0.01 -0.01 -0.01 L 158,656.12 v -0.01 -0.01 l -0.01,-0.02 v -0.03 l -0.01,-0.02 -0.01,-0.02 v -0.01 -0.01 -0.01 l -0.01,-0.01 v -0.01 -0.01 -0.01 -0.01 0 l -0.01,-0.01 v -0.01 0 -0.01 0 0 0 0 -0.01 c 0,-0.15 0.13,-0.22 0.24,-0.22 0.12,0 0.24,0.09 0.27,0.15 0.03,0.07 0.09,0.29 0.13,0.44 0.03,0.13 0.11,0.45 0.15,0.62 0.04,0.15 0.08,0.31 0.12,0.47 0.08,0.28 0.09,0.34 0.29,0.62 0.2,0.28 0.53,0.64 1.05,0.64 0.41,0 0.41,-0.35 0.41,-0.48 0,-0.42 -0.3,-1.19 -0.41,-1.48 -0.07,-0.2 -0.1,-0.26 -0.1,-0.38 0,-0.37 0.3,-0.6 0.66,-0.6 0.7,0 1.01,0.96 1.01,1.06 0,0.1 -0.09,0.1 -0.11,0.1 -0.1,0 -0.11,-0.05 -0.14,-0.12 -0.16,-0.56 -0.46,-0.84 -0.74,-0.84 -0.15,0 -0.17,0.09 -0.17,0.24 0,0.16 0.03,0.25 0.16,0.56 0.08,0.22 0.37,0.96 0.37,1.35 0,0.67 -0.54,0.79 -0.91,0.79 -0.58,0 -0.97,-0.36 -1.18,-0.64 -0.05,0.49 -0.46,0.64 -0.75,0.64 -0.3,0 -0.46,-0.22 -0.55,-0.38 -0.16,-0.26 -0.25,-0.65 -0.25,-0.69 0,-0.09 0.09,-0.09 0.12,-0.09 0.09,0 0.1,0.02 0.15,0.21 0.1,0.41 0.24,0.75 0.51,0.75 0.18,0 0.23,-0.15 0.23,-0.34 0,-0.13 -0.06,-0.39 -0.11,-0.57 -0.05,-0.19 -0.12,-0.48 -0.16,-0.63 z"
   inkscape:connector-curvature="0" />
</g>    <g
       style="font-style:normal;font-variant:normal;font-weight:normal;font-stretch:normal;letter-spacing:normal;word-spacing:normal;text-anchor:start;fill:none;fill-opacity:1;fill-rule:evenodd;stroke:#000000;stroke-linecap:butt;stroke-linejoin:miter;stroke-miterlimit:10.43299961;stroke-dasharray:none;stroke-dashoffset:0;stroke-opacity:1"
       ns0:jacobian_sqrt="0.705556"
       inkscapeversion="0.92.4"
       ns0:alignment="middle center"
       ns0:scale="1.9999999433"
       ns0:preamble="C:\\Users\\Tom\\AppData\\Roaming\\inkscape\\extensions\\textext\\default_packages.tex"
       ns0:text="$\\boldsymbol{F}_{n+1}$"
       ns0:pdfconverter="pstoedit"
       ns0:texconverter="pdflatex"
       ns0:version="0.10.2"
       word-spacing="normal"
       letter-spacing="normal"
       font-size-adjust="none"
       font-stretch="normal"
       font-weight="normal"
       font-variant="normal"
       font-style="normal"
       stroke-miterlimit="10.433"
       xml:space="preserve"
       transform="matrix(0.705556,0,0,-0.705556,-16.767602,626.64315)"
       id="g2384">
<path
   id="path2376"
   style="fill:#000000;fill-opacity:1;stroke:#000000;stroke-width:0;stroke-opacity:1"
   d="m 152.36,660.38 h 0.65 c 0.6,0 0.77,-0.1 0.77,-0.42 0,-0.11 -0.03,-0.3 -0.06,-0.42 -0.02,-0.07 -0.03,-0.12 -0.03,-0.14 0,-0.15 0.13,-0.18 0.23,-0.18 0.19,0 0.2,0.06 0.25,0.24 l 0.56,2.21 c 0.03,0.13 0.03,0.15 0.03,0.16 0,0.18 -0.19,0.18 -0.23,0.18 -0.19,0 -0.21,-0.07 -0.26,-0.25 -0.2,-0.76 -0.51,-0.91 -1.23,-0.91 h -0.56 l 0.66,2.65 c 0.13,0.02 0.24,0.02 0.34,0.02 h 1.18 c 1.14,0 1.49,-0.29 1.49,-1.16 0,-0.24 -0.04,-0.54 -0.04,-0.58 0,-0.18 0.19,-0.18 0.24,-0.18 0.21,0 0.22,0.1 0.24,0.27 l 0.18,1.78 0.01,0.16 c 0,0.18 -0.17,0.18 -0.33,0.18 h -5.36 c -0.21,0 -0.22,-0.01 -0.27,-0.05 -0.07,-0.05 -0.09,-0.23 -0.09,-0.24 0,-0.18 0.14,-0.18 0.4,-0.18 0.22,0 0.4,-0.01 0.61,-0.02 l -1.4,-5.6 c -0.04,-0.16 -0.05,-0.17 -0.23,-0.19 -0.17,-0.01 -0.37,-0.01 -0.53,-0.01 -0.26,0 -0.28,0 -0.32,-0.02 -0.12,-0.07 -0.12,-0.23 -0.12,-0.27 0,-0.01 0,-0.18 0.22,-0.18 0.25,0 0.51,0.03 0.76,0.03 0.27,0 0.54,0.01 0.81,0.01 0.3,0 0.59,-0.01 0.89,-0.01 0.29,0 0.58,-0.03 0.86,-0.03 0.12,0 0.3,0 0.3,0.29 0,0.18 -0.17,0.18 -0.33,0.18 h -0.33 c -0.38,0 -0.53,0.02 -0.63,0.04 z"
   inkscape:connector-curvature="0" />
<path
   id="path2378"
   style="fill:#000000;fill-opacity:1;stroke:#000000;stroke-width:0;stroke-opacity:1"
   d="m 158.02,656.18 v -0.01 l -0.01,-0.01 v -0.01 -0.01 -0.01 L 158,656.12 v -0.01 -0.01 l -0.01,-0.02 v -0.03 l -0.01,-0.02 -0.01,-0.02 v -0.01 -0.01 -0.01 l -0.01,-0.01 v -0.01 -0.01 -0.01 -0.01 0 l -0.01,-0.01 v -0.01 0 -0.01 0 0 0 0 -0.01 c 0,-0.15 0.13,-0.22 0.24,-0.22 0.12,0 0.24,0.09 0.27,0.15 0.03,0.07 0.09,0.29 0.13,0.44 0.03,0.13 0.11,0.45 0.15,0.62 0.04,0.15 0.08,0.31 0.12,0.47 0.08,0.28 0.09,0.34 0.29,0.62 0.2,0.28 0.53,0.64 1.05,0.64 0.41,0 0.41,-0.35 0.41,-0.48 0,-0.42 -0.3,-1.19 -0.41,-1.48 -0.07,-0.2 -0.1,-0.26 -0.1,-0.38 0,-0.37 0.3,-0.6 0.66,-0.6 0.7,0 1.01,0.96 1.01,1.06 0,0.1 -0.09,0.1 -0.11,0.1 -0.1,0 -0.11,-0.05 -0.14,-0.12 -0.16,-0.56 -0.46,-0.84 -0.74,-0.84 -0.15,0 -0.17,0.09 -0.17,0.24 0,0.16 0.03,0.25 0.16,0.56 0.08,0.22 0.37,0.96 0.37,1.35 0,0.67 -0.54,0.79 -0.91,0.79 -0.58,0 -0.97,-0.36 -1.18,-0.64 -0.05,0.49 -0.46,0.64 -0.75,0.64 -0.3,0 -0.46,-0.22 -0.55,-0.38 -0.16,-0.26 -0.25,-0.65 -0.25,-0.69 0,-0.09 0.09,-0.09 0.12,-0.09 0.09,0 0.1,0.02 0.15,0.21 0.1,0.41 0.24,0.75 0.51,0.75 0.18,0 0.23,-0.15 0.23,-0.34 0,-0.13 -0.06,-0.39 -0.11,-0.57 -0.05,-0.19 -0.12,-0.48 -0.16,-0.63 z"
   inkscape:connector-curvature="0" />
<path
   id="path2380"
   style="fill:#000000;fill-opacity:1;stroke:#000000;stroke-width:0;stroke-opacity:1"
   d="m 165.33,657.31 h 2.14 c 0.09,0 0.26,0 0.26,0.17 0,0.17 -0.16,0.17 -0.26,0.17 h -2.14 v 2.14 c 0,0.09 0,0.25 -0.17,0.25 -0.17,0 -0.17,-0.15 -0.17,-0.25 v -2.14 h -2.15 c -0.09,0 -0.26,0 -0.26,-0.16 0,-0.18 0.16,-0.18 0.26,-0.18 h 2.15 v -2.13 c 0,-0.09 0,-0.26 0.16,-0.26 0.18,0 0.18,0.16 0.18,0.26 z"
   inkscape:connector-curvature="0" />
<path
   id="path2382"
   style="fill:#000000;fill-opacity:1;stroke:#000000;stroke-width:0;stroke-opacity:1"
   d="m 170.55,660.16 v 0.01 0.01 0.01 0.01 0 0.01 0.01 0.01 0 0.01 0.01 0 0.01 0 0.01 h -0.01 v 0.01 0 0.01 0.01 0.01 h -0.01 v 0.01 l -0.01,0.01 v 0 l -0.01,0.01 v 0 h -0.01 l -0.01,0.01 h -0.01 v 0 h -0.01 -0.01 v 0 h -0.01 l -0.01,0.01 v 0 h -0.01 v 0 h -0.01 -0.01 v 0 h -0.01 -0.01 -0.01 v 0 h -0.01 -0.01 -0.01 -0.01 c -0.45,-0.44 -1.08,-0.45 -1.37,-0.45 v -0.25 c 0.17,0 0.63,0 1.01,0.2 v -3.55 c 0,-0.23 0,-0.32 -0.69,-0.32 h -0.27 v -0.25 c 0.13,0.01 0.99,0.03 1.24,0.03 0.22,0 1.1,-0.02 1.25,-0.03 v 0.25 h -0.26 c -0.7,0 -0.7,0.09 -0.7,0.32 z"
   inkscape:connector-curvature="0" />
</g>    <g
       style="font-style:normal;font-variant:normal;font-weight:normal;font-stretch:normal;letter-spacing:normal;word-spacing:normal;text-anchor:start;fill:none;fill-opacity:1;fill-rule:evenodd;stroke:#000000;stroke-linecap:butt;stroke-linejoin:miter;stroke-miterlimit:10.43299961;stroke-dasharray:none;stroke-dashoffset:0;stroke-opacity:1"
       ns0:jacobian_sqrt="0.705556"
       inkscapeversion="0.92.4"
       ns0:alignment="middle center"
       ns0:scale="1.99999991495"
       ns0:preamble="C:\\Users\\Tom\\AppData\\Roaming\\inkscape\\extensions\\textext\\default_packages.tex"
       ns0:text="${^4\\boldsymbol{\\mathcal{C}}}_{n+\\frac{1}{2}}, \\boldsymbol{D}_{n+\\frac{1}{2}}$"
       ns0:pdfconverter="pstoedit"
       ns0:texconverter="pdflatex"
       ns0:version="0.10.2"
       word-spacing="normal"
       letter-spacing="normal"
       font-size-adjust="none"
       font-stretch="normal"
       font-weight="normal"
       font-variant="normal"
       font-style="normal"
       stroke-miterlimit="10.433"
       xml:space="preserve"
       transform="matrix(0.705556,0,0,-0.705556,9.9060733,558.14095)"
       id="g2500">
<path
   id="path2472"
   style="fill:#000000;fill-opacity:1;stroke:#000000;stroke-width:0;stroke-opacity:1"
   d="m 152.41,661.99 v 0.25 h -0.78 v 3.1 c 0,0.15 0,0.2 -0.15,0.2 -0.08,0 -0.11,0 -0.18,-0.1 l -2.31,-3.2 v -0.25 h 2.05 l 0.05,0.25 h -1.85 l 1.85,2.55 v -2.55 l -0.05,-0.25 v -0.57 c 0,-0.24 0,-0.32 -0.57,-0.32 h -0.18 v -0.25 c 0.34,0.01 0.79,0.03 1.04,0.03 0.26,0 0.71,-0.02 1.06,-0.03 v 0.25 h -0.19 c -0.57,0 -0.57,0.08 -0.57,0.32 v 0.57 z"
   inkscape:connector-curvature="0" />
<path
   id="path2474"
   style="fill:#000000;fill-opacity:1;stroke:#000000;stroke-width:0;stroke-opacity:1"
   d="m 158.97,658.9 v 0.01 0.01 h -0.01 v 0.01 0.01 0 0.01 h -0.01 v 0.01 0 l -0.01,0.01 v 0.01 h -0.01 v 0.01 h -0.01 v 0 l -0.01,0.01 v 0 l -0.01,0.01 h -0.01 v 0 l -0.01,0.01 v 0 h -0.01 -0.01 v 0.01 h -0.01 -0.01 v 0 h -0.01 -0.01 v 0 c -0.18,0 -0.67,-0.12 -1.07,-0.56 -0.19,-0.21 -0.54,-0.57 -1.19,-0.57 -1.12,0 -1.88,0.87 -1.88,2.14 0,0.61 0.21,1.59 0.83,2.43 0.4,0.53 0.94,0.88 1.81,0.88 0.28,0 0.55,-0.05 0.55,-0.44 0,-0.32 -0.32,-0.87 -0.39,-0.99 -0.1,-0.14 -0.1,-0.16 -0.1,-0.21 0,-0.13 0.13,-0.13 0.18,-0.13 0.26,0 0.85,0.25 1.09,0.63 0.03,0.06 0.51,0.85 0.51,1.31 0,0.7 -0.63,0.7 -0.82,0.7 -1.88,0 -3.23,-1.22 -3.44,-1.43 -1.44,-1.43 -1.52,-2.95 -1.52,-3.37 0,-1.5 0.96,-2.38 2.17,-2.38 1.81,0 3.42,1.59 3.42,1.86 z"
   inkscape:connector-curvature="0" />
<path
   id="path2476"
   style="fill:#000000;fill-opacity:1;stroke:#000000;stroke-width:0;stroke-opacity:1"
   d="m 160.61,655.22 v -0.01 -0.01 l -0.01,-0.01 v -0.01 -0.01 l -0.01,-0.01 v -0.01 -0.01 l -0.01,-0.02 v -0.03 l -0.01,-0.02 v -0.02 l -0.01,-0.01 v -0.01 -0.01 -0.01 L 160.55,655 v -0.01 -0.01 -0.01 0 -0.01 l -0.01,-0.01 v 0 -0.01 0 0 -0.01 0 0 c 0,-0.15 0.13,-0.22 0.24,-0.22 0.12,0 0.24,0.09 0.27,0.15 0.04,0.06 0.09,0.29 0.13,0.43 0.03,0.14 0.11,0.46 0.15,0.63 0.04,0.15 0.08,0.3 0.12,0.47 0.08,0.28 0.09,0.34 0.29,0.62 0.2,0.28 0.53,0.64 1.05,0.64 0.41,0 0.42,-0.35 0.42,-0.49 0,-0.41 -0.31,-1.19 -0.42,-1.48 -0.07,-0.19 -0.1,-0.25 -0.1,-0.37 0,-0.37 0.3,-0.6 0.66,-0.6 0.7,0 1.01,0.96 1.01,1.06 0,0.09 -0.09,0.09 -0.11,0.09 -0.1,0 -0.11,-0.04 -0.14,-0.11 -0.16,-0.56 -0.46,-0.85 -0.74,-0.85 -0.14,0 -0.17,0.1 -0.17,0.25 0,0.16 0.03,0.25 0.16,0.56 0.08,0.22 0.37,0.95 0.37,1.34 0,0.68 -0.54,0.8 -0.91,0.8 -0.58,0 -0.97,-0.36 -1.18,-0.64 -0.05,0.48 -0.46,0.64 -0.75,0.64 -0.3,0 -0.46,-0.22 -0.55,-0.38 -0.16,-0.26 -0.25,-0.65 -0.25,-0.69 0,-0.09 0.09,-0.09 0.12,-0.09 0.09,0 0.1,0.02 0.15,0.21 0.1,0.41 0.24,0.75 0.51,0.75 0.18,0 0.23,-0.15 0.23,-0.34 0,-0.13 -0.06,-0.39 -0.11,-0.58 -0.05,-0.19 -0.12,-0.47 -0.15,-0.62 z"
   inkscape:connector-curvature="0" />
<path
   id="path2478"
   style="fill:#000000;fill-opacity:1;stroke:#000000;stroke-width:0;stroke-opacity:1"
   d="m 167.92,656.35 h 2.14 c 0.09,0 0.26,0 0.26,0.17 0,0.17 -0.16,0.17 -0.26,0.17 h -2.14 v 2.14 c 0,0.09 0,0.25 -0.17,0.25 -0.17,0 -0.17,-0.16 -0.17,-0.25 v -2.14 h -2.15 c -0.09,0 -0.26,0 -0.26,-0.17 0,-0.17 0.16,-0.17 0.26,-0.17 h 2.15 v -2.13 c 0,-0.09 0,-0.26 0.16,-0.26 0.18,0 0.18,0.16 0.18,0.26 z"
   inkscape:connector-curvature="0" />
<path
   id="path2480"
   style="fill:#000000;fill-opacity:1;stroke:#000000;stroke-width:0;stroke-opacity:1"
   d="m 173.97,660.62 v 0 0.01 0.01 0 0.01 0 0.01 0.01 0 0.01 0 0.01 0 0 0.01 0 0.01 0 h -0.01 v 0.01 0 0.01 0 l -0.01,0.01 v 0 l -0.01,0.01 v 0 h -0.01 v 0.01 h -0.01 -0.01 v 0 h -0.01 -0.01 v 0 0 h -0.01 v 0 h -0.01 v 0 h -0.01 -0.01 v 0 h -0.01 v 0 h -0.01 -0.01 v 0 l -0.01,0.01 h -0.01 -0.01 c -0.35,-0.32 -0.9,-0.32 -1,-0.32 h -0.08 v -0.22 h 0.08 c 0.11,0 0.44,0.01 0.72,0.14 v -2.49 c 0,-0.15 0,-0.2 -0.52,-0.2 h -0.25 v -0.22 c 0.27,0.02 0.72,0.02 1,0.02 0.29,0 0.73,0 1.01,-0.02 v 0.22 h -0.25 c -0.53,0 -0.53,0.05 -0.53,0.2 z"
   inkscape:connector-curvature="0" />
<line
   id="line2482"
   style="fill-opacity:1;stroke:#000000;stroke-width:0.33899999;stroke-opacity:1"
   y2="656.52002"
   x2="175.38"
   y1="656.52002"
   x1="171.99001" />
<path
   id="path2484"
   style="fill:#000000;fill-opacity:1;stroke:#000000;stroke-width:0;stroke-opacity:1"
   d="m 174.92,653.34 h -0.21 c -0.01,-0.1 -0.06,-0.41 -0.14,-0.45 -0.04,-0.03 -0.46,-0.03 -0.53,-0.03 h -0.98 c 0.33,0.24 0.7,0.52 1,0.72 0.44,0.3 0.86,0.59 0.86,1.12 0,0.63 -0.6,0.99 -1.31,0.99 -0.67,0 -1.16,-0.39 -1.16,-0.88 0,-0.26 0.22,-0.3 0.29,-0.3 0.13,0 0.29,0.09 0.29,0.29 0,0.18 -0.13,0.28 -0.29,0.3 0.14,0.22 0.43,0.37 0.77,0.37 0.48,0 0.88,-0.29 0.88,-0.78 0,-0.41 -0.29,-0.73 -0.67,-1.05 l -1.21,-1.03 c -0.05,-0.05 -0.06,-0.05 -0.06,-0.08 v -0.15 h 2.31 z"
   inkscape:connector-curvature="0" />
<path
   id="path2486"
   style="fill:#000000;fill-opacity:1;stroke:#000000;stroke-width:0;stroke-opacity:1"
   d="m 179.1,657.24 v 0.07 0.05 0.06 l -0.01,0.06 -0.01,0.05 v 0.05 l -0.01,0.06 -0.01,0.04 -0.01,0.05 -0.02,0.05 -0.01,0.04 -0.02,0.04 -0.01,0.04 -0.02,0.04 -0.02,0.04 -0.02,0.03 -0.02,0.04 -0.02,0.03 -0.03,0.02 -0.02,0.03 -0.03,0.03 -0.03,0.02 -0.02,0.02 -0.03,0.02 -0.03,0.01 -0.03,0.02 -0.03,0.01 -0.04,0.01 -0.03,0.01 h -0.03 l -0.04,0.01 h -0.04 c -0.33,0 -0.52,-0.25 -0.52,-0.53 0,-0.27 0.19,-0.53 0.52,-0.53 0.12,0 0.25,0.05 0.35,0.13 0.03,0.02 0.04,0.03 0.05,0.03 0.01,0 0.02,-0.01 0.02,-0.15 0,-0.73 -0.35,-1.33 -0.67,-1.65 -0.11,-0.11 -0.11,-0.13 -0.11,-0.16 0,-0.07 0.05,-0.11 0.1,-0.11 0.1,0 0.9,0.76 0.9,1.92 z"
   inkscape:connector-curvature="0" />
<path
   id="path2488"
   style="fill:#000000;fill-opacity:1;stroke:#000000;stroke-width:0;stroke-opacity:1"
   d="m 183.13,657.9 v -0.01 l -0.01,-0.02 v -0.01 -0.01 l -0.01,-0.01 v -0.01 -0.01 l -0.01,-0.01 v -0.01 -0.01 l -0.01,-0.01 v 0 l -0.01,-0.01 v -0.01 h -0.01 v -0.01 h -0.01 v 0 l -0.01,-0.01 h -0.01 v 0 l -0.01,-0.01 h -0.01 -0.01 -0.01 l -0.01,-0.01 h -0.02 -0.01 -0.01 -0.01 -0.01 v -0.01 h -0.01 -0.01 -0.01 c -0.17,-0.01 -0.37,-0.01 -0.53,-0.01 -0.26,0 -0.28,0 -0.32,-0.02 -0.12,-0.07 -0.12,-0.23 -0.12,-0.27 0,-0.18 0.18,-0.18 0.34,-0.18 h 3.9 l -0.27,0.47 h -1.23 c -0.15,0 -0.17,0 -0.24,0.01 l 1.42,5.69 c 0.04,0.15 0.05,0.16 0.11,0.17 0.09,0.01 0.16,0.01 0.27,0.01 h 1.14 c 0.29,0 0.96,-0.03 1.44,-0.4 0.49,-0.42 0.49,-1.01 0.49,-1.24 0,-0.69 -0.37,-2.06 -0.63,-2.62 -0.58,-1.16 -1.62,-1.62 -2.77,-1.62 l 0.27,-0.47 c 2.87,0 4.46,2.35 4.46,4.37 0,1.72 -1.27,2.45 -2.75,2.45 h -3.98 c -0.2,0 -0.37,0 -0.37,-0.29 0,-0.18 0.13,-0.18 0.42,-0.18 0.21,0 0.4,-0.01 0.61,-0.02 z"
   inkscape:connector-curvature="0" />
<path
   id="path2490"
   style="fill:#000000;fill-opacity:1;stroke:#000000;stroke-width:0;stroke-opacity:1"
   d="m 192.02,655.22 v -0.01 -0.01 -0.01 l -0.01,-0.01 v -0.01 -0.01 L 192,655.15 v -0.01 -0.02 l -0.01,-0.03 -0.01,-0.02 v -0.02 -0.01 l -0.01,-0.01 v -0.01 -0.01 -0.01 l -0.01,-0.01 v -0.01 -0.01 0 -0.01 -0.01 0 -0.01 h -0.01 v 0 -0.01 0 0 c 0,-0.15 0.13,-0.22 0.24,-0.22 0.13,0 0.24,0.09 0.27,0.15 0.04,0.06 0.09,0.29 0.13,0.43 0.04,0.14 0.11,0.46 0.15,0.63 0.05,0.15 0.09,0.3 0.12,0.47 0.08,0.28 0.09,0.34 0.3,0.62 0.19,0.28 0.52,0.64 1.05,0.64 0.4,0 0.41,-0.35 0.41,-0.49 0,-0.41 -0.3,-1.19 -0.41,-1.48 -0.08,-0.19 -0.11,-0.25 -0.11,-0.37 0,-0.37 0.31,-0.6 0.66,-0.6 0.7,0 1.01,0.96 1.01,1.06 0,0.09 -0.09,0.09 -0.11,0.09 -0.1,0 -0.11,-0.04 -0.13,-0.11 -0.16,-0.56 -0.46,-0.85 -0.74,-0.85 -0.15,0 -0.18,0.1 -0.18,0.25 0,0.16 0.04,0.25 0.16,0.56 0.09,0.22 0.37,0.95 0.37,1.34 0,0.68 -0.54,0.8 -0.91,0.8 -0.58,0 -0.97,-0.36 -1.18,-0.64 -0.05,0.48 -0.46,0.64 -0.75,0.64 -0.3,0 -0.46,-0.22 -0.55,-0.38 -0.15,-0.26 -0.25,-0.65 -0.25,-0.69 0,-0.09 0.1,-0.09 0.12,-0.09 0.1,0 0.1,0.02 0.15,0.21 0.11,0.41 0.24,0.75 0.51,0.75 0.18,0 0.23,-0.15 0.23,-0.34 0,-0.13 -0.06,-0.39 -0.11,-0.58 -0.05,-0.19 -0.12,-0.47 -0.15,-0.62 z"
   inkscape:connector-curvature="0" />
<path
   id="path2492"
   style="fill:#000000;fill-opacity:1;stroke:#000000;stroke-width:0;stroke-opacity:1"
   d="m 199.33,656.35 h 2.14 c 0.09,0 0.26,0 0.26,0.17 0,0.17 -0.16,0.17 -0.26,0.17 h -2.14 v 2.14 c 0,0.09 0,0.25 -0.17,0.25 -0.17,0 -0.17,-0.16 -0.17,-0.25 v -2.14 h -2.15 c -0.09,0 -0.25,0 -0.25,-0.17 0,-0.17 0.15,-0.17 0.25,-0.17 h 2.15 v -2.13 c 0,-0.09 0,-0.26 0.17,-0.26 0.17,0 0.17,0.16 0.17,0.26 z"
   inkscape:connector-curvature="0" />
<path
   id="path2494"
   style="fill:#000000;fill-opacity:1;stroke:#000000;stroke-width:0;stroke-opacity:1"
   d="m 205.38,660.62 v 0 0.01 0.01 0 0.01 0 0.01 0.01 0 0.01 0 0.01 0 0 0.01 0 0.01 0 0 0.01 h -0.01 v 0.01 0 l -0.01,0.01 v 0 0.01 h -0.01 v 0 l -0.01,0.01 h -0.01 v 0 h -0.01 -0.01 v 0 h -0.01 v 0 h -0.01 v 0 h -0.01 v 0 h -0.01 v 0 h -0.01 -0.01 v 0 h -0.01 -0.01 v 0 l -0.01,0.01 h -0.01 v 0 c -0.36,-0.32 -0.91,-0.32 -1.01,-0.32 h -0.08 v -0.22 h 0.08 c 0.12,0 0.44,0.01 0.73,0.14 v -2.49 c 0,-0.15 0,-0.2 -0.53,-0.2 h -0.25 v -0.22 c 0.28,0.02 0.72,0.02 1,0.02 0.29,0 0.73,0 1.01,-0.02 v 0.22 h -0.25 c -0.53,0 -0.53,0.05 -0.53,0.2 z"
   inkscape:connector-curvature="0" />
<line
   id="line2496"
   style="fill-opacity:1;stroke:#000000;stroke-width:0.33899999;stroke-opacity:1"
   y2="656.52002"
   x2="206.8"
   y1="656.52002"
   x1="203.41" />
<path
   id="path2498"
   style="fill:#000000;fill-opacity:1;stroke:#000000;stroke-width:0;stroke-opacity:1"
   d="m 206.33,653.34 h -0.21 c -0.01,-0.1 -0.06,-0.41 -0.14,-0.45 -0.04,-0.03 -0.46,-0.03 -0.53,-0.03 h -0.97 c 0.32,0.24 0.69,0.52 0.99,0.72 0.44,0.3 0.86,0.59 0.86,1.12 0,0.63 -0.6,0.99 -1.31,0.99 -0.67,0 -1.16,-0.39 -1.16,-0.88 0,-0.26 0.22,-0.3 0.29,-0.3 0.13,0 0.29,0.09 0.29,0.29 0,0.18 -0.13,0.28 -0.28,0.3 0.14,0.22 0.42,0.37 0.76,0.37 0.48,0 0.88,-0.29 0.88,-0.78 0,-0.41 -0.29,-0.73 -0.67,-1.05 l -1.21,-1.03 c -0.05,-0.05 -0.06,-0.05 -0.06,-0.08 v -0.15 h 2.31 z"
   inkscape:connector-curvature="0" />
</g>    <g
       style="stroke:#000000;stroke-opacity:1;fill-opacity:1"
       ns0:jacobian_sqrt="0.705556"
       inkscapeversion="0.92.4"
       ns0:alignment="middle center"
       ns0:scale="1.9999999433"
       ns0:preamble="C:\\Users\\Tom\\AppData\\Roaming\\inkscape\\extensions\\textext\\default_packages.tex"
       ns0:text="${^4\\boldsymbol{C}}, \\boldsymbol{D}_{0}$"
       ns0:pdfconverter="pstoedit"
       ns0:texconverter="pdflatex"
       ns0:version="0.10.2"
       word-spacing="normal"
       letter-spacing="normal"
       font-size-adjust="none"
       font-stretch="normal"
       font-weight="normal"
       font-variant="normal"
       font-style="normal"
       stroke-miterlimit="10.433"
       xml:space="preserve"
       transform="matrix(0.705556,0.000000,0.000000,-0.705556,-89.902877,608.087655)"
       id="g2869"
       text-anchor="start"
       stroke-dashoffset="0"
       stroke-dasharray="none"
       stroke-opacity="1"
       stroke-linejoin="miter"
       stroke-linecap="butt"
       stroke="black"
       fill-rule="evenodd"
       fill-opacity="1"
       fill="none">
<path
   id="path2859"
   style="stroke:#000000;stroke-opacity:1;fill-opacity:1"
   d="M152.41,661.99 V662.24 H151.63 V665.34 C151.63,665.49,151.63,665.54,151.48,665.54 C151.4,665.54,151.37,665.54,151.3,665.44 L148.99,662.24 V661.99 H151.04 L151.09,662.24 H149.24 L151.09,664.79 V662.24 L151.04,661.99 V661.42 C151.04,661.18,151.04,661.1,150.47,661.1 H150.29 V660.85 C150.63,660.86,151.08,660.88,151.33,660.88 C151.59,660.88,152.04,660.86,152.39,660.85 V661.1 H152.2 C151.63,661.1,151.63,661.18,151.63,661.42 V661.99 Z "
   stroke-width="0"
   fill="black" />
<path
   id="path2861"
   style="stroke:#000000;stroke-opacity:1;fill-opacity:1"
   d="M161.68,663.92 L161.68,663.93 L161.68,663.94 L161.68,663.95 L161.69,663.96 L161.69,663.98 L161.69,663.99 L161.7,664 L161.7,664.01 L161.7,664.02 L161.7,664.03 L161.7,664.04 L161.71,664.05 L161.71,664.06 L161.71,664.07 L161.71,664.07 L161.71,664.08 C161.71,664.22,161.57,664.22,161.46,664.22 L160.53,663.5 C160.07,664.01,159.4,664.22,158.71,664.22 C155.5,664.22,153.73,661.78,153.73,659.75 C153.73,657.87,155.24,657.07,156.98,657.07 C157.82,657.07,158.67,657.32,159.42,657.88 C160.39,658.6,160.57,659.51,160.57,659.56 C160.57,659.7,160.43,659.7,160.34,659.7 C160.15,659.7,160.14,659.68,160.09,659.51 C159.68,658.25,158.39,657.53,157.25,657.53 C156.64,657.53,156.1,657.67,155.7,657.99 C155.16,658.4,155.12,659.07,155.12,659.34 C155.12,659.63,155.28,661.49,156.26,662.64 C156.8,663.28,157.77,663.75,158.87,663.75 C160.08,663.75,160.59,662.84,160.59,661.96 C160.59,661.85,160.56,661.72,160.56,661.62 C160.56,661.47,160.69,661.47,160.83,661.47 C161.05,661.47,161.06,661.48,161.11,661.68 Z "
   stroke-width="0"
   fill="black" />
<path
   id="path2863"
   style="stroke:#000000;stroke-opacity:1;fill-opacity:1"
   d="M164.04,657.24 L164.04,657.31 L164.04,657.36 L164.03,657.42 L164.03,657.48 L164.02,657.53 L164.01,657.58 L164.01,657.64 L164,657.68 L163.98,657.73 L163.97,657.78 L163.96,657.82 L163.94,657.86 L163.92,657.9 L163.91,657.94 L163.89,657.98 L163.87,658.01 L163.85,658.05 L163.82,658.08 L163.8,658.1 L163.77,658.13 L163.75,658.16 L163.72,658.18 L163.69,658.2 L163.67,658.22 L163.64,658.23 L163.61,658.25 L163.57,658.26 L163.54,658.27 L163.51,658.28 L163.47,658.28 L163.44,658.29 L163.4,658.29 C163.07,658.29,162.87,658.04,162.87,657.76 C162.87,657.49,163.07,657.23,163.4,657.23 C163.52,657.23,163.65,657.28,163.75,657.36 C163.78,657.38,163.79,657.39,163.8,657.39 C163.81,657.39,163.82,657.38,163.82,657.24 C163.82,656.51,163.47,655.91,163.14,655.59 C163.03,655.48,163.03,655.46,163.03,655.43 C163.03,655.36,163.08,655.32,163.13,655.32 C163.24,655.32,164.04,656.08,164.04,657.24 Z "
   stroke-width="0"
   fill="black" />
<path
   id="path2865"
   style="stroke:#000000;stroke-opacity:1;fill-opacity:1"
   d="M168.07,657.9 L168.07,657.89 L168.06,657.87 L168.06,657.86 L168.06,657.85 L168.05,657.84 L168.05,657.83 L168.05,657.82 L168.04,657.81 L168.04,657.8 L168.03,657.79 L168.03,657.78 L168.03,657.78 L168.02,657.77 L168.02,657.76 L168.01,657.76 L168.01,657.75 L168,657.75 L168,657.75 L167.99,657.74 L167.98,657.74 L167.97,657.74 L167.97,657.73 L167.96,657.73 L167.95,657.73 L167.94,657.73 L167.92,657.72 L167.91,657.72 L167.9,657.72 L167.89,657.72 L167.88,657.72 L167.87,657.72 L167.86,657.71 L167.86,657.71 L167.85,657.71 L167.84,657.71 C167.67,657.7,167.47,657.7,167.31,657.7 C167.05,657.7,167.03,657.7,166.99,657.68 C166.87,657.61,166.87,657.45,166.87,657.41 C166.87,657.23,167.05,657.23,167.21,657.23 H171.11 L170.84,657.7 H169.6 C169.46,657.7,169.44,657.7,169.37,657.71 L170.79,663.4 C170.83,663.55,170.84,663.56,170.9,663.57 C170.99,663.58,171.06,663.58,171.17,663.58 H172.31 C172.6,663.58,173.26,663.55,173.74,663.17 C174.24,662.76,174.24,662.17,174.24,661.94 C174.24,661.25,173.87,659.88,173.6,659.32 C173.03,658.16,171.99,657.7,170.84,657.7 L171.11,657.23 C173.97,657.23,175.57,659.58,175.57,661.6 C175.57,663.32,174.3,664.05,172.82,664.05 H168.84 C168.64,664.05,168.47,664.05,168.47,663.76 C168.47,663.58,168.6,663.58,168.89,663.58 C169.1,663.58,169.29,663.57,169.49,663.56 Z "
   stroke-width="0"
   fill="black" />
<path
   id="path2867"
   style="stroke:#000000;stroke-opacity:1;fill-opacity:1"
   d="M179.72,657.96 L179.71,658.1 L179.71,658.24 L179.71,658.37 L179.7,658.49 L179.69,658.62 L179.67,658.74 L179.65,658.85 L179.63,658.96 L179.6,659.07 L179.58,659.18 L179.54,659.28 L179.5,659.38 L179.46,659.48 L179.41,659.57 L179.36,659.67 L179.33,659.71 L179.3,659.76 C179.09,660.08,178.65,660.36,178.09,660.36 V660.16 C178.47,660.16,178.84,659.93,178.96,659.53 C179.07,659.16,179.08,658.66,179.08,658.05 C179.08,657.53,179.08,657.02,178.99,656.58 C178.85,655.95,178.37,655.8,178.09,655.8 H178.09 C177.77,655.8,177.35,655.98,177.21,656.55 C177.11,656.97,177.11,657.53,177.11,658.05 C177.11,658.56,177.11,659.09,177.21,659.47 C177.36,660.02,177.81,660.16,178.09,660.16 V660.36 C176.47,660.36,176.47,658.46,176.47,657.96 C176.47,657.46,176.47,655.6,178.09,655.6 C179.72,655.6,179.72,657.46,179.72,657.96 Z "
   stroke-width="0"
   fill="black" />
</g>    <g
       style="font-style:normal;font-variant:normal;font-weight:normal;font-stretch:normal;letter-spacing:normal;word-spacing:normal;text-anchor:start;fill:none;fill-opacity:1;fill-rule:evenodd;stroke:#000000;stroke-linecap:butt;stroke-linejoin:miter;stroke-miterlimit:10.43299961;stroke-dasharray:none;stroke-dashoffset:0;stroke-opacity:1"
       ns0:jacobian_sqrt="0.705556"
       inkscapeversion="0.92.4"
       ns0:alignment="middle center"
       ns0:scale="1.99999991495"
       ns0:preamble="C:\\Users\\Tom\\AppData\\Roaming\\inkscape\\extensions\\textext\\default_packages.tex"
       ns0:text="$\\boldsymbol{\\sigma}_{n}$"
       ns0:pdfconverter="pstoedit"
       ns0:texconverter="pdflatex"
       ns0:version="0.10.2"
       word-spacing="normal"
       letter-spacing="normal"
       font-size-adjust="none"
       font-stretch="normal"
       font-weight="normal"
       font-variant="normal"
       font-style="normal"
       stroke-miterlimit="10.433"
       xml:space="preserve"
       transform="matrix(0.705556,0,0,-0.705556,-13.551689,597.08349)"
       id="g3000">
<path
   id="path2996"
   style="fill:#000000;fill-opacity:1;stroke:#000000;stroke-width:0;stroke-opacity:1"
   d="M 152.09,661.65 152,661.64 h -0.1 l -0.18,-0.02 -0.17,-0.02 -0.17,-0.04 -0.17,-0.04 -0.15,-0.05 -0.15,-0.07 -0.15,-0.06 -0.13,-0.08 -0.13,-0.08 -0.13,-0.09 -0.12,-0.09 -0.11,-0.1 -0.11,-0.1 -0.09,-0.11 -0.1,-0.11 -0.09,-0.12 -0.08,-0.11 -0.07,-0.12 -0.07,-0.12 -0.07,-0.12 -0.06,-0.12 -0.05,-0.12 -0.05,-0.12 -0.04,-0.12 -0.03,-0.12 -0.03,-0.12 -0.03,-0.11 -0.01,-0.11 -0.02,-0.11 -0.01,-0.11 v -0.1 c 0,-1.07 0.81,-1.57 1.88,-1.57 l 0.02,0.35 c -0.87,0 -0.87,0.7 -0.87,0.86 0,0.37 0.22,1.32 0.45,1.69 0.2,0.33 0.52,0.63 1.28,0.63 0.82,0 0.92,-0.34 0.92,-0.69 0,-0.3 -0.2,-1.29 -0.52,-1.78 -0.41,-0.62 -0.99,-0.71 -1.26,-0.71 v 0 l -0.02,-0.35 c 1.82,0 2.88,1.37 2.88,2.78 0,0.24 -0.04,0.51 -0.14,0.75 h 0.96 c 0.19,0 0.34,0 0.49,0.15 0.07,0.07 0.2,0.19 0.2,0.42 0,0.39 -0.35,0.39 -0.52,0.39 z"
   inkscape:connector-curvature="0" />
<path
   id="path2998"
   style="fill:#000000;fill-opacity:1;stroke:#000000;stroke-width:0;stroke-opacity:1"
   d="m 156.77,656.18 -0.01,-0.01 v -0.01 -0.01 -0.01 l -0.01,-0.01 v -0.01 -0.01 l -0.01,-0.01 v -0.02 l -0.01,-0.03 v -0.02 l -0.01,-0.02 V 656 655.99 l -0.01,-0.01 v -0.01 -0.01 -0.01 -0.01 l -0.01,-0.01 v 0 -0.01 -0.01 0 -0.01 0 0 0 0 -0.01 c 0,-0.15 0.12,-0.22 0.23,-0.22 0.13,0 0.24,0.09 0.28,0.15 0.03,0.07 0.09,0.29 0.12,0.44 0.04,0.13 0.12,0.45 0.16,0.62 0.04,0.15 0.08,0.31 0.12,0.47 0.07,0.28 0.09,0.34 0.29,0.62 0.2,0.28 0.52,0.64 1.05,0.64 0.4,0 0.41,-0.35 0.41,-0.48 0,-0.42 -0.3,-1.19 -0.41,-1.48 -0.08,-0.2 -0.11,-0.26 -0.11,-0.38 0,-0.37 0.31,-0.6 0.67,-0.6 0.7,0 1,0.96 1,1.06 0,0.1 -0.09,0.1 -0.11,0.1 -0.1,0 -0.1,-0.05 -0.13,-0.12 -0.16,-0.56 -0.46,-0.84 -0.74,-0.84 -0.15,0 -0.18,0.09 -0.18,0.24 0,0.16 0.04,0.25 0.16,0.56 0.09,0.22 0.37,0.96 0.37,1.35 0,0.67 -0.53,0.79 -0.9,0.79 -0.58,0 -0.97,-0.36 -1.19,-0.64 -0.04,0.49 -0.46,0.64 -0.74,0.64 -0.3,0 -0.46,-0.22 -0.56,-0.38 -0.15,-0.26 -0.25,-0.65 -0.25,-0.69 0,-0.09 0.1,-0.09 0.12,-0.09 0.1,0 0.11,0.02 0.15,0.21 0.11,0.41 0.24,0.75 0.52,0.75 0.18,0 0.23,-0.15 0.23,-0.34 0,-0.13 -0.07,-0.39 -0.11,-0.57 -0.05,-0.19 -0.12,-0.48 -0.16,-0.63 z"
   inkscape:connector-curvature="0" />
</g>    <g
       style="font-style:normal;font-variant:normal;font-weight:normal;font-stretch:normal;letter-spacing:normal;word-spacing:normal;text-anchor:start;fill:none;fill-opacity:1;fill-rule:evenodd;stroke:#000000;stroke-linecap:butt;stroke-linejoin:miter;stroke-miterlimit:10.43299961;stroke-dasharray:none;stroke-dashoffset:0;stroke-opacity:1"
       ns0:jacobian_sqrt="0.705556"
       inkscapeversion="0.92.4"
       ns0:alignment="middle center"
       ns0:scale="1.9999998866"
       ns0:preamble="C:\\Users\\Tom\\AppData\\Roaming\\inkscape\\extensions\\textext\\default_packages.tex"
       ns0:text="$\\boldsymbol{\\sigma}_{n+1}$"
       ns0:pdfconverter="pstoedit"
       ns0:texconverter="pdflatex"
       ns0:version="0.10.2"
       word-spacing="normal"
       letter-spacing="normal"
       font-size-adjust="none"
       font-stretch="normal"
       font-weight="normal"
       font-variant="normal"
       font-style="normal"
       stroke-miterlimit="10.433"
       xml:space="preserve"
       transform="matrix(0.705556,0,0,-0.705556,54.369689,605.63879)"
       id="g3126">
<path
   id="path3118"
   style="fill:#000000;fill-opacity:1;stroke:#000000;stroke-width:0;stroke-opacity:1"
   d="M 152.09,661.65 152,661.64 h -0.1 l -0.18,-0.02 -0.17,-0.02 -0.17,-0.04 -0.17,-0.04 -0.15,-0.05 -0.15,-0.07 -0.15,-0.06 -0.13,-0.08 -0.13,-0.08 -0.13,-0.09 -0.12,-0.09 -0.11,-0.1 -0.11,-0.1 -0.09,-0.11 -0.1,-0.11 -0.09,-0.12 -0.08,-0.11 -0.07,-0.12 -0.07,-0.12 -0.07,-0.12 -0.06,-0.12 -0.05,-0.12 -0.05,-0.12 -0.04,-0.12 -0.03,-0.12 -0.03,-0.12 -0.03,-0.11 -0.01,-0.11 -0.02,-0.11 -0.01,-0.11 v -0.1 c 0,-1.07 0.81,-1.57 1.88,-1.57 l 0.02,0.35 c -0.87,0 -0.87,0.7 -0.87,0.86 0,0.37 0.22,1.32 0.45,1.69 0.2,0.33 0.52,0.63 1.28,0.63 0.82,0 0.92,-0.34 0.92,-0.69 0,-0.3 -0.2,-1.29 -0.52,-1.78 -0.41,-0.62 -0.99,-0.71 -1.26,-0.71 v 0 l -0.02,-0.35 c 1.82,0 2.88,1.37 2.88,2.78 0,0.24 -0.04,0.51 -0.14,0.75 h 0.96 c 0.19,0 0.34,0 0.49,0.15 0.07,0.07 0.2,0.19 0.2,0.42 0,0.39 -0.35,0.39 -0.52,0.39 z"
   inkscape:connector-curvature="0" />
<path
   id="path3120"
   style="fill:#000000;fill-opacity:1;stroke:#000000;stroke-width:0;stroke-opacity:1"
   d="m 156.77,656.18 -0.01,-0.01 v -0.01 -0.01 -0.01 l -0.01,-0.01 v -0.01 -0.01 l -0.01,-0.01 v -0.02 l -0.01,-0.03 v -0.02 l -0.01,-0.02 V 656 655.99 l -0.01,-0.01 v -0.01 -0.01 -0.01 -0.01 l -0.01,-0.01 v 0 -0.01 -0.01 0 -0.01 0 0 0 0 -0.01 c 0,-0.15 0.12,-0.22 0.23,-0.22 0.13,0 0.24,0.09 0.28,0.15 0.03,0.07 0.09,0.29 0.12,0.44 0.04,0.13 0.12,0.45 0.16,0.62 0.04,0.15 0.08,0.31 0.12,0.47 0.07,0.28 0.09,0.34 0.29,0.62 0.2,0.28 0.52,0.64 1.05,0.64 0.4,0 0.41,-0.35 0.41,-0.48 0,-0.42 -0.3,-1.19 -0.41,-1.48 -0.08,-0.2 -0.11,-0.26 -0.11,-0.38 0,-0.37 0.31,-0.6 0.67,-0.6 0.7,0 1,0.96 1,1.06 0,0.1 -0.09,0.1 -0.11,0.1 -0.1,0 -0.1,-0.05 -0.13,-0.12 -0.16,-0.56 -0.46,-0.84 -0.74,-0.84 -0.15,0 -0.18,0.09 -0.18,0.24 0,0.16 0.04,0.25 0.16,0.56 0.09,0.22 0.37,0.96 0.37,1.35 0,0.67 -0.53,0.79 -0.9,0.79 -0.58,0 -0.97,-0.36 -1.19,-0.64 -0.04,0.49 -0.46,0.64 -0.74,0.64 -0.3,0 -0.46,-0.22 -0.56,-0.38 -0.15,-0.26 -0.25,-0.65 -0.25,-0.69 0,-0.09 0.1,-0.09 0.12,-0.09 0.1,0 0.11,0.02 0.15,0.21 0.11,0.41 0.24,0.75 0.52,0.75 0.18,0 0.23,-0.15 0.23,-0.34 0,-0.13 -0.07,-0.39 -0.11,-0.57 -0.05,-0.19 -0.12,-0.48 -0.16,-0.63 z"
   inkscape:connector-curvature="0" />
<path
   id="path3122"
   style="fill:#000000;fill-opacity:1;stroke:#000000;stroke-width:0;stroke-opacity:1"
   d="m 164.08,657.31 h 2.14 c 0.09,0 0.25,0 0.25,0.17 0,0.17 -0.16,0.17 -0.25,0.17 h -2.14 v 2.14 c 0,0.09 0,0.25 -0.17,0.25 -0.18,0 -0.18,-0.15 -0.18,-0.25 v -2.14 h -2.14 c -0.09,0 -0.26,0 -0.26,-0.16 0,-0.18 0.16,-0.18 0.26,-0.18 h 2.14 v -2.13 c 0,-0.09 0,-0.26 0.17,-0.26 0.18,0 0.18,0.16 0.18,0.26 z"
   inkscape:connector-curvature="0" />
<path
   id="path3124"
   style="fill:#000000;fill-opacity:1;stroke:#000000;stroke-width:0;stroke-opacity:1"
   d="m 169.3,660.16 v 0.01 0.01 0.01 0.01 0 0.01 0.01 0.01 0 0.01 l -0.01,0.01 v 0 0.01 0 0.01 0 0.01 0 0.01 0.01 l -0.01,0.01 v 0 l -0.01,0.01 v 0.01 0 l -0.01,0.01 h -0.01 v 0 l -0.01,0.01 h -0.01 -0.01 -0.01 v 0 h -0.01 v 0 l -0.01,0.01 v 0 h -0.01 -0.01 v 0 h -0.01 -0.01 v 0 h -0.01 -0.01 -0.01 -0.01 v 0 h -0.01 -0.01 c -0.45,-0.44 -1.09,-0.45 -1.37,-0.45 v -0.25 c 0.16,0 0.63,0 1.01,0.2 v -3.55 c 0,-0.23 0,-0.32 -0.7,-0.32 h -0.26 v -0.25 c 0.12,0.01 0.98,0.03 1.24,0.03 0.22,0 1.1,-0.02 1.25,-0.03 v 0.25 H 170 c -0.7,0 -0.7,0.09 -0.7,0.32 z"
   inkscape:connector-curvature="0" />
</g>    <rect
       style="opacity:1;fill:none;fill-opacity:1;stroke:none;stroke-width:0.25937691;stroke-miterlimit:4;stroke-dasharray:none;stroke-dashoffset:0;stroke-opacity:1"
       id="rect3981"
       width="189.63335"
       height="93.149048"
       x="2.9371533"
       y="72.891685"
       inkscape:export-filename="C:\Users\Tom\Documents\University\Masters\Thesis\Report\Chapter99_AppA_objectivestressrates\AppA_Configurations.PNG"
       inkscape:export-xdpi="200"
       inkscape:export-ydpi="200" />
    <rect
       style="opacity:1;fill:none;fill-opacity:1;stroke:none;stroke-width:0.26471502;stroke-miterlimit:4;stroke-dasharray:none;stroke-dashoffset:0;stroke-opacity:1"
       id="rect1007"
       width="185.76065"
       height="94.886581"
       x="2.9357953"
       y="71.155518"
       inkscape:export-filename="C:\Users\Tom\Documents\University\Masters\Thesis\Report\Chapter99_AppA_objectivestressrates\AppA_Configurations.PNG"
       inkscape:export-xdpi="300"
       inkscape:export-ydpi="300" />
    <rect
       style="opacity:1;fill:none;fill-opacity:1;stroke:#000000;stroke-width:0.24392878;stroke-miterlimit:4;stroke-dasharray:none;stroke-dashoffset:0;stroke-opacity:1"
       id="rect1021"
       width="185.76065"
       height="94.886574"
       x="2.9357953"
       y="71.155518"
       inkscape:export-filename="C:\Users\Tom\Documents\University\Masters\Thesis\Progress_report_20191029\AppA_Configurationsv2.PNG"
       inkscape:export-xdpi="300"
       inkscape:export-ydpi="300" />
  </g>
</svg>
